<svg xmlns="http://www.w3.org/2000/svg" viewBox="0 0 500 500"><g id="freepik--background-simple--inject-135"><path d="M47.29,116.76q2.52-4.14,5.25-8.12c24.33-35.25,64.82-59.38,104.17-70.31a227.19,227.19,0,0,1,52.61-7.94c115.9-4.16,158.48,90.09,195.82,114.39s94.65,65.8,87.46,153c-5.46,66.3-43.7,129.69-113.53,158.53a201.15,201.15,0,0,1-24.24,8.25,234.62,234.62,0,0,1-51.19,7.76C250.84,474.63,208,462.08,166,430.47c-9.75-7.35-19.44-15.64-32.1-16.55-9.19-.66-17.91,2.6-8.3,11.36,11.3,10.31-1.73,30.57-30.41,16.49C47.32,418.26,27.62,367.54,18.34,316,7,252.66,12.47,173.93,47.29,116.76Z" style="fill:#92E3A9"></path><path d="M47.29,116.76q2.52-4.14,5.25-8.12c24.33-35.25,64.82-59.38,104.17-70.31a227.19,227.19,0,0,1,52.61-7.94c115.9-4.16,158.48,90.09,195.82,114.39s94.65,65.8,87.46,153c-5.46,66.3-43.7,129.69-113.53,158.53a201.15,201.15,0,0,1-24.24,8.25,234.62,234.62,0,0,1-51.19,7.76C250.84,474.63,208,462.08,166,430.47c-9.75-7.35-19.44-15.64-32.1-16.55-9.19-.66-17.91,2.6-8.3,11.36,11.3,10.31-1.73,30.57-30.41,16.49C47.32,418.26,27.62,367.54,18.34,316,7,252.66,12.47,173.93,47.29,116.76Z" style="fill:#fff;opacity:0.7000000000000001"></path></g><g id="freepik--Clouds--inject-135"><path d="M398.34,74.48H363.52a.5.5,0,0,1,0-1h34.29c-.19-2.44-1.21-12.61-5.45-15-2.79-1.57-5.64-.82-8.4-.1-2,.53-3.94,1-5.56.45-3.58-1.3-4.11-5.43-4.16-6-.29-.94-5.19-16.12-16.95-17.93-9.83-1.51-12.18,3.51-14.89,9.32-.61,1.31-1.24,2.66-2,3.94-2.59,4.52-6.47,2.33-10.22.21-2.49-1.4-5-2.85-7.59-2.85-3.3,0-4.61,3.13-6,6.44-1.25,3-2.54,6.08-5.43,7s-5.41.36-7.94-.2c-2.9-.64-5.9-1.31-9.39.19s-5.45,3.81-7.3,5.91-3.33,3.78-5.45,3.78c-.88,0-2,0-3.15-.11-3.77-.17-8.94-.41-11,1-1.86,1.24-4.54,2.89-6.21,3.91h92.93a.5.5,0,0,1,0,1H258.93a.49.49,0,0,1-.48-.37.5.5,0,0,1,.22-.56c.05,0,4.85-2.91,7.7-4.81,2.38-1.58,7.52-1.35,11.65-1.15,1.15,0,2.24.1,3.1.1,1.67,0,3-1.52,4.7-3.44s4.1-4.65,7.65-6.17c3.79-1.62,6.95-.93,10-.25,2.51.56,4.87,1.08,7.41.23s3.61-3.57,4.83-6.48c1.45-3.47,2.94-7,6.91-7,2.8,0,5.6,1.58,8.08,3,4.2,2.37,6.87,3.64,8.86.17.71-1.25,1.33-2.58,1.93-3.87,2.64-5.66,5.37-11.52,15.95-9.89,12.71,1.95,17.57,18,17.77,18.69a.36.36,0,0,1,0,.1s.36,4,3.52,5.19c1.32.48,3.09,0,5-.47,2.81-.74,6-1.58,9.14.18,5.28,3,6,15.8,6,16.34a.5.5,0,0,1-.13.37A.52.52,0,0,1,398.34,74.48Z" style="fill:#263238"></path><path d="M156.8,108.78H136.89a.51.51,0,0,1-.5-.5.5.5,0,0,1,.5-.5h19.38c-.19-2.3-1-7-3-8.18-1.52-.85-3.11-.43-4.65,0a5.61,5.61,0,0,1-3.3.25c-2.12-.77-2.47-3.16-2.52-3.58-.21-.68-3-9.09-9.52-10.09-5.45-.84-6.77,2-8.28,5.21-.35.75-.72,1.53-1.14,2.27-1.58,2.77-4,1.4-6.14.19a9.42,9.42,0,0,0-4.23-1.6c-1.74,0-2.43,1.65-3.23,3.55s-1.49,3.57-3.23,4.15a8.26,8.26,0,0,1-4.66-.11,7.81,7.81,0,0,0-5.24.1,11.51,11.51,0,0,0-4.09,3.32c-1.06,1.2-2,2.24-3.28,2.24-.5,0-1.13,0-1.81-.06-2.13-.1-5-.24-6.19.52-.85.57-2,1.29-2.91,1.85h52.39a.5.5,0,0,1,.5.5.51.51,0,0,1-.5.5H77.08a.5.5,0,0,1-.48-.37.49.49,0,0,1,.22-.56s2.77-1.66,4.4-2.75c1.41-.94,4.39-.8,6.79-.69.66,0,1.27.06,1.76.06.86,0,1.6-.84,2.53-1.9A12.43,12.43,0,0,1,96.75,99a8.88,8.88,0,0,1,5.85-.16,7.33,7.33,0,0,0,4.12.14c1.32-.43,2-2,2.63-3.58.82-2,1.74-4.17,4.15-4.17A10.27,10.27,0,0,1,118.23,93c2.42,1.37,3.73,2,4.77.18.4-.7.76-1.46,1.1-2.2,1.54-3.31,3.14-6.73,9.35-5.77,7.4,1.14,10.22,10.44,10.33,10.84a.3.3,0,0,1,0,.1s.2,2.17,1.87,2.78a5,5,0,0,0,2.71-.28c1.57-.41,3.52-.92,5.39.13,3.12,1.76,3.52,9.21,3.53,9.52a.5.5,0,0,1-.13.37A.52.52,0,0,1,156.8,108.78Z" style="fill:#263238"></path><path d="M471.54,152.05H451.63a.5.5,0,0,1-.5-.5.5.5,0,0,1,.5-.5H471c-.19-2.3-1-7-3-8.17-1.51-.85-3.1-.44-4.64,0a5.7,5.7,0,0,1-3.3.25,4.3,4.3,0,0,1-2.52-3.59c-.22-.68-3-9.08-9.52-10.09-5.45-.84-6.77,2-8.28,5.21-.36.75-.72,1.53-1.14,2.27-1.58,2.77-4,1.4-6.14.2a9.3,9.3,0,0,0-4.23-1.6c-1.74,0-2.43,1.64-3.23,3.55-.73,1.75-1.49,3.57-3.23,4.15a8.44,8.44,0,0,1-4.66-.11,7.81,7.81,0,0,0-5.24.09,11.44,11.44,0,0,0-4.09,3.33c-1.06,1.2-2,2.23-3.28,2.23-.51,0-1.13,0-1.81-.06-2.13-.1-5.05-.23-6.19.53-.85.57-2,1.28-2.91,1.84H446a.51.51,0,0,1,.5.5.5.5,0,0,1-.5.5H391.82a.5.5,0,0,1-.48-.36.51.51,0,0,1,.22-.57s2.77-1.66,4.4-2.74c1.41-.95,4.39-.81,6.78-.7.67,0,1.28.06,1.77.06.86,0,1.59-.83,2.53-1.89a12.45,12.45,0,0,1,4.45-3.59,8.88,8.88,0,0,1,5.85-.15,7.51,7.51,0,0,0,4.12.14c1.32-.44,2-2,2.63-3.59.82-1.95,1.74-4.16,4.15-4.16a10.19,10.19,0,0,1,4.72,1.73c2.43,1.37,3.74,2,4.78.17.4-.7.76-1.46,1.1-2.19,1.54-3.31,3.15-6.73,9.34-5.78,7.41,1.14,10.22,10.45,10.34,10.84a.36.36,0,0,1,0,.1s.2,2.18,1.87,2.79a5.1,5.1,0,0,0,2.71-.28c1.56-.41,3.52-.92,5.38.13,3.13,1.76,3.53,9.2,3.54,9.52a.47.47,0,0,1-.14.37A.48.48,0,0,1,471.54,152.05Z" style="fill:#263238"></path></g><g id="freepik--Mountain--inject-135"><path d="M491.56,327.06a.71.71,0,0,1-.2,0l-16-6.74a.5.5,0,0,1-.29-.33L455.93,252l-11.11-12a.55.55,0,0,1-.12-.24L441,221.63l-13.17-18L404,194.94a.48.48,0,0,1-.24-.2l-24.4-37.54-28.55-4a.49.49,0,0,1-.33-.19l-6.79-9.25-10.73-.65-15.83,16a.52.52,0,0,1-.36.14h-5.86a.5.5,0,0,1-.45-.27l-5.25-10.63-6.78-3.3a.5.5,0,0,1-.25-.3L286,106.51l-8.91-6-6.4-5.76-15.93-1.54-6.25,13.83a.51.51,0,0,1-.28.26l-8.86,3.3-12.71,30.12a.45.45,0,0,1-.27.27l-15.22,6-2.6,11.2a.51.51,0,0,1-.23.32l-6.77,4-31.39,90.8-6.4,16.2a.48.48,0,0,1-.28.28l-25.58,10.11a.53.53,0,0,1-.28,0l-18.12-3.37-32.94-7.39-22.13,4L20,286.6,12.5,288a.51.51,0,0,1-.58-.4.5.5,0,0,1,.41-.58l7.41-1.35,44.42-13.46,22.29-4.06h.2l33,7.41,18,3.35,25.24-10,6.32-16,31.43-91a.53.53,0,0,1,.22-.27l6.75-3.93,2.61-11.25a.5.5,0,0,1,.31-.35l15.25-6L238.48,110a.48.48,0,0,1,.29-.27l8.86-3.3,6.31-14a.53.53,0,0,1,.51-.3L270.9,93.8a.51.51,0,0,1,.29.13l6.46,5.82,9,6a.48.48,0,0,1,.2.27L299,144.25l6.74,3.27a.51.51,0,0,1,.23.23l5.19,10.5h5.34l15.85-16a.5.5,0,0,1,.38-.15l11.19.68a.48.48,0,0,1,.38.2l6.8,9.26,28.57,4a.51.51,0,0,1,.35.22l24.42,37.6,23.83,8.7a.58.58,0,0,1,.23.18l13.32,18.19a.4.4,0,0,1,.09.2l3.7,18.06,11.1,12a.53.53,0,0,1,.11.21L476,319.45l15.76,6.64a.5.5,0,0,1,.27.66A.51.51,0,0,1,491.56,327.06Z" style="fill:#263238"></path><polygon points="343.93 143.25 336.8 152.66 337.28 157.88 337.75 186.82 344.39 162.15 351.51 159.77 350.86 152.69 343.93 143.25" style="fill:#263238"></polygon><path d="M337.75,187.32h-.06a.51.51,0,0,1-.44-.49l-.47-28.94-.48-5.18a.55.55,0,0,1,.1-.35l7.13-9.4a.47.47,0,0,1,.41-.2.55.55,0,0,1,.4.21l6.92,9.43a.49.49,0,0,1,.1.25l.65,7.09a.51.51,0,0,1-.34.52l-6.86,2.28L338.23,187A.48.48,0,0,1,337.75,187.32Zm-.43-34.52.46,5,.41,25.42L343.91,162a.49.49,0,0,1,.33-.35l6.74-2.25-.6-6.55-6.45-8.78Z" style="fill:#263238"></path><polygon points="379.64 156.73 375.71 165.94 364.32 167.84 363.37 174.48 365.74 217.18 372.86 196.31 372.86 183.5 378.08 182.55 382.35 193.46 381.88 218.6 390.42 220.03 395.16 231.89 403.7 229.52 404.17 203.9 413.66 198.68 404.15 194.47 379.64 156.73" style="fill:#263238"></polygon><path d="M395.16,232.39a.48.48,0,0,1-.46-.32l-4.64-11.6-8.27-1.37a.5.5,0,0,1-.41-.51l.47-25-4.09-10.44-4.4.8v12.4a.5.5,0,0,1,0,.16l-7.11,20.87a.51.51,0,0,1-.55.34.52.52,0,0,1-.43-.47l-2.37-42.7,1-6.74a.48.48,0,0,1,.41-.42l11.11-1.86,3.83-9a.51.51,0,0,1,.42-.31.53.53,0,0,1,.46.23l24.43,37.61,9.37,4.15a.5.5,0,0,1,0,.9l-9.23,5.07-.47,25.34a.49.49,0,0,1-.37.47l-8.54,2.37Zm-12.78-14.21,8.12,1.35a.52.52,0,0,1,.38.31l4.58,11.45,7.75-2.16.46-25.24a.52.52,0,0,1,.26-.43l8.61-4.73-8.59-3.8a.48.48,0,0,1-.21-.19l-24-37-3.56,8.35a.5.5,0,0,1-.38.29l-11,1.84-.89,6.28,2.23,40,6.26-18.37V183.5a.5.5,0,0,1,.41-.5l5.22-.95a.49.49,0,0,1,.55.31l4.27,10.92a.41.41,0,0,1,0,.19Zm-6.67-52.24h0Z" style="fill:#263238"></path><polygon points="428.14 203.23 420.3 231.89 413.19 235.21 414.14 271.74 421.73 286.92 420.3 327.73 437.38 289.77 445.92 291.19 451.62 325.35 465.85 331.52 475.57 319.82 456.38 251.75 445.19 239.62 441.46 221.43 428.14 203.23" style="fill:#263238"></polygon><path d="M465.85,332a.48.48,0,0,1-.2,0l-14.23-6.17a.49.49,0,0,1-.3-.37l-5.63-33.81-7.81-1.3-16.92,37.6a.49.49,0,0,1-.57.28.51.51,0,0,1-.39-.5L421.22,287,413.69,272a.46.46,0,0,1-.05-.21l-.95-36.53a.48.48,0,0,1,.29-.46l6.9-3.23,7.78-28.43a.49.49,0,0,1,.88-.16l13.32,18.19a.4.4,0,0,1,.09.2l3.7,18.06,11.1,12a.53.53,0,0,1,.11.21l19.19,68.06a.48.48,0,0,1-.1.46l-9.71,11.7A.5.5,0,0,1,465.85,332Zm-13.78-7,13.64,5.91L475,319.7,455.93,252l-11.11-12a.55.55,0,0,1-.12-.24L441,221.63l-12.64-17.27L420.79,232a.51.51,0,0,1-.27.32l-6.82,3.18.93,36.1,7.54,15.08a.53.53,0,0,1,.06.24l-1.34,38.26,16-35.63a.48.48,0,0,1,.54-.29L446,290.7a.51.51,0,0,1,.41.41ZM420.3,231.89h0Z" style="fill:#263238"></path><polygon points="305.56 147.97 297.9 163.57 293.15 164.99 299.32 184.44 310.23 180.65 310.89 158.75 305.56 147.97" style="fill:#263238"></polygon><path d="M299.32,184.94a.42.42,0,0,1-.22-.05.57.57,0,0,1-.26-.29l-6.16-19.46a.5.5,0,0,1,0-.38.5.5,0,0,1,.3-.25l4.54-1.36,7.56-15.4a.51.51,0,0,1,.45-.28h0a.5.5,0,0,1,.45.28l5.33,10.78a.52.52,0,0,1,.05.24l-.66,21.89a.5.5,0,0,1-.33.46l-10.91,3.8A.5.5,0,0,1,299.32,184.94Zm-5.54-19.61,5.86,18.47,10.1-3.51.65-21.43-4.83-9.76-7.21,14.69a.51.51,0,0,1-.31.26Zm4.12-1.76h0Z" style="fill:#263238"></path><polygon points="270.86 94.3 264.69 101.89 277.31 100.13 270.86 94.3" style="fill:#263238"></polygon><path d="M264.69,102.39a.49.49,0,0,1-.39-.81l6.17-7.6a.5.5,0,0,1,.72,0l6.46,5.82a.51.51,0,0,1,.14.52.48.48,0,0,1-.41.35l-12.62,1.77ZM270.91,95l-5,6.2,10.3-1.44Z" style="fill:#263238"></path><polygon points="286.38 106.19 274.65 119.92 266.11 120.39 261.37 116.6 265.64 137 276.55 150.76 278.45 163.09 298.63 144.6 286.38 106.19" style="fill:#263238"></polygon><path d="M278.45,163.59l-.17,0a.54.54,0,0,1-.33-.4L276.08,151l-10.84-13.66a.5.5,0,0,1-.09-.21l-4.27-20.4a.48.48,0,0,1,.22-.53.51.51,0,0,1,.58,0l4.59,3.67,8.14-.45L286,105.87a.47.47,0,0,1,.47-.17.51.51,0,0,1,.38.34l12.26,38.41a.5.5,0,0,1-.14.52l-20.19,18.49A.46.46,0,0,1,278.45,163.59ZM266.1,136.78l10.84,13.67a.52.52,0,0,1,.1.23l1.76,11.41,19.26-17.64L286.17,107.2l-11.14,13a.5.5,0,0,1-.35.18l-8.54.47a.51.51,0,0,1-.34-.1l-3.66-2.93Z" style="fill:#263238"></path><polygon points="327.31 193.46 332.06 199.63 323.52 206.74 306.91 204.84 315.45 226.67 323.52 228.09 338.7 213.38 337.28 198.68 327.31 193.46" style="fill:#263238"></polygon><path d="M323.52,228.59h-.09l-8.06-1.42a.49.49,0,0,1-.38-.31L306.45,205a.48.48,0,0,1,.07-.49.49.49,0,0,1,.45-.19l16.39,1.87,8-6.67-4.45-5.79a.48.48,0,0,1,0-.62.5.5,0,0,1,.62-.12l10,5.21a.52.52,0,0,1,.27.4l1.42,14.71a.49.49,0,0,1-.15.4l-15.18,14.71A.52.52,0,0,1,323.52,228.59Zm-7.7-2.36,7.53,1.33,14.83-14.37L336.81,199l-7.71-4,3.36,4.36a.51.51,0,0,1-.08.69l-8.54,7.12a.52.52,0,0,1-.38.11l-15.78-1.8Z" style="fill:#263238"></path><polygon points="214.87 163.09 221.51 168.79 221.51 211.96 231.48 171.63 214.87 163.09" style="fill:#263238"></polygon><path d="M221.51,212.46h-.06a.51.51,0,0,1-.44-.5V169l-6.46-5.55a.47.47,0,0,1-.09-.65.48.48,0,0,1,.64-.17l16.61,8.54a.5.5,0,0,1,.25.56l-10,40.33A.5.5,0,0,1,221.51,212.46Zm-3.08-47,3.41,2.92a.49.49,0,0,1,.17.38v39.06l8.89-35.95Z" style="fill:#263238"></path><polygon points="247.13 153.13 230.05 148.86 233.85 156.45 231.48 161.67 236.22 167.36 231.48 171.63 236.22 194.41 245.71 191.09 257.1 166.41 254.72 150.28 247.13 153.13" style="fill:#263238"></polygon><path d="M236.22,194.91a.47.47,0,0,1-.25-.07.51.51,0,0,1-.24-.33L231,171.74a.5.5,0,0,1,.15-.48l4.39-3.95L231.09,162a.51.51,0,0,1-.07-.53l2.27-5-3.68-7.38a.49.49,0,0,1,0-.53.51.51,0,0,1,.51-.17l16.93,4.23,7.45-2.79a.49.49,0,0,1,.67.39l2.37,16.13a.44.44,0,0,1,0,.28L246.16,191.3a.5.5,0,0,1-.29.26l-9.48,3.32A.51.51,0,0,1,236.22,194.91Zm-4.2-23.1,4.57,21.94,8.75-3.07,11.24-24.34L254.32,151l-7,2.63a.61.61,0,0,1-.3,0l-16-4,3.31,6.62a.5.5,0,0,1,0,.43l-2.24,4.93L236.6,167a.51.51,0,0,1,0,.7Z" style="fill:#263238"></path><polygon points="359.21 257.56 339.1 272.23 314.11 278.2 315.19 293.42 323.34 301.03 323.89 306.46 309.22 306.46 320.63 319.5 351.6 333.63 395.62 346.13 396.16 314.07 392.36 298.31 390.73 267.34 371.71 261.36 367.9 247.77 358.12 249.4 359.21 257.56" style="fill:#263238"></polygon><path d="M395.62,346.63l-.14,0-44-12.5-31-14.15a.43.43,0,0,1-.17-.13l-11.41-13a.51.51,0,0,1-.08-.54.51.51,0,0,1,.46-.29h14.11l-.46-4.7-8-7.47a.54.54,0,0,1-.16-.33l-1.08-15.22a.49.49,0,0,1,.38-.52l24.9-6,19.78-14.43-1-7.86a.49.49,0,0,1,.41-.56l9.78-1.63a.49.49,0,0,1,.56.36L372.12,261l18.76,5.9a.51.51,0,0,1,.35.45l1.63,31L396.65,314a.57.57,0,0,1,0,.13l-.54,32.06a.53.53,0,0,1-.2.39A.49.49,0,0,1,395.62,346.63Zm-74.69-27.54,30.88,14.09,43.32,12.29.53-31.35-3.79-15.69-1.62-30.72-18.69-5.87a.49.49,0,0,1-.33-.35l-3.69-13.15-8.86,1.48,1,7.67a.52.52,0,0,1-.21.47l-20.1,14.67a.48.48,0,0,1-.18.08l-24.58,5.88,1,14.6,8,7.47a.53.53,0,0,1,.15.32l.54,5.43a.51.51,0,0,1-.12.39.52.52,0,0,1-.37.16H310.32Z" style="fill:#263238"></path><polygon points="404.86 255.93 396.16 260.27 399.96 276.57 404.86 255.93" style="fill:#263238"></polygon><path d="M400,277.07h0a.49.49,0,0,1-.48-.38l-3.81-16.3a.5.5,0,0,1,.27-.56l8.69-4.35a.51.51,0,0,1,.54.05.49.49,0,0,1,.17.51l-4.89,20.65A.49.49,0,0,1,400,277.07Zm-3.22-16.53L400,274.39l4.15-17.54Z" style="fill:#263238"></path><path d="M334.47,428.81H231.69a.48.48,0,0,1-.4-.2.51.51,0,0,1-.08-.45l23.1-73.24a.46.46,0,0,1,.19-.26c.87-.6,21.42-14.71,27.38-17.36,6.15-2.73,24.94,6.93,25.74,7.34a.51.51,0,0,1,.24.28l7.33,22,18,44.58a.65.65,0,0,1,0,.13L335,428.26a.51.51,0,0,1-.12.39A.53.53,0,0,1,334.47,428.81Zm-102.1-1H333.92l-1.72-16-17.95-44.55L307,345.43c-2-1-19.29-9.62-24.69-7.22-5.63,2.51-25.21,15.89-27.08,17.17Z" style="fill:#263238"></path><path d="M268.64,428.81H201.37a.5.5,0,0,1-.44-.25.47.47,0,0,1,0-.5l16.13-27.3a.4.4,0,0,1,.14-.15c1.91-1.35,11.55-8.09,13.6-8.09s13.6,2.57,14.1,2.68a.51.51,0,0,1,.29.19L269,428a.49.49,0,0,1,0,.52A.5.5,0,0,1,268.64,428.81Zm-66.4-1h65.42l-23.15-31.68c-4.19-.92-12.18-2.61-13.7-2.61-1.33,0-8.6,4.78-12.94,7.84Z" style="fill:#263238"></path><polygon points="307.39 345.08 297.18 373.21 290.32 383.51 276.97 384.28 297.95 416.7 278.87 420.9 249.88 402.97 268.64 428.31 334.47 428.31 332.69 411.67 310.54 355.29 307.39 345.08" style="fill:#263238"></polygon><path d="M334.47,428.81H268.64a.48.48,0,0,1-.4-.2l-18.76-25.34a.51.51,0,0,1,0-.64.53.53,0,0,1,.64-.09L279,420.37l18.18-4-20.59-31.82a.49.49,0,0,1,.39-.77L290,383l6.7-10,10.18-28.08a.52.52,0,0,1,.48-.33.53.53,0,0,1,.47.35L311,355.14l22.15,56.35,0,.12L335,428.26a.51.51,0,0,1-.12.39A.53.53,0,0,1,334.47,428.81Zm-65.58-1h65l-1.72-16-22.13-56.32-2.72-8.82-9.7,26.74a.47.47,0,0,1,0,.1l-6.87,10.3a.49.49,0,0,1-.38.22l-12.5.72,20.52,31.7a.5.5,0,0,1-.32.76L279,421.39a.54.54,0,0,1-.37-.07l-26.78-16.56Z" style="fill:#263238"></path><polygon points="244.8 395.69 234.62 396.87 225.85 406.02 225.47 418.23 215.55 427.76 268.64 428.31 244.8 395.69" style="fill:#263238"></polygon><path d="M268.64,428.81h0l-53.1-.55a.48.48,0,0,1-.45-.31.51.51,0,0,1,.11-.55L225,418l.37-12a.44.44,0,0,1,.14-.33l8.77-9.16a.51.51,0,0,1,.31-.15l10.17-1.18a.5.5,0,0,1,.46.2L269,428a.47.47,0,0,1,0,.52A.48.48,0,0,1,268.64,428.81Zm-51.86-1.53,50.87.52-23.08-31.58-9.71,1.12-8.52,8.89-.37,12a.56.56,0,0,1-.15.35Zm8.69-9h0Z" style="fill:#263238"></path></g><g id="freepik--Cactus--inject-135"><path d="M420.11,428.31V391.22c0-9.17.4-73.41,0-81a331.81,331.81,0,0,1,1.2-35.11c.79-6.38,0-25.93-.4-33.52s-3.2-10.37-6-9.57-3.59,9.18-4.79,17.95-4.39,37.91-4.39,41.1-1.59,28.73-1.59,44.29c0,14.63-3.18,84.64-3.56,92.95Z" style="fill:#92E3A9"></path><path d="M420.11,428.81H400.59a.51.51,0,0,1-.36-.15.55.55,0,0,1-.14-.37c.37-8,3.56-78.16,3.56-92.93,0-10.72.77-26.42,1.23-35.79.21-4.36.36-7.52.36-8.5,0-3.3,3.24-32.71,4.4-41.16.12-.91.24-1.82.36-2.71,1.1-8.3,2-14.86,4.78-15.66a3.63,3.63,0,0,1,3.2.56c2,1.4,3.18,4.76,3.43,9.47.47,9,1.16,27.48.39,33.6a336.67,336.67,0,0,0-1.19,35c.31,5.85.14,45.81.05,67.29,0,6.59-.05,11.62-.05,13.73v37.09A.5.5,0,0,1,420.11,428.81Zm-19-1h18.49V391.22c0-2.11,0-7.15.05-13.74.09-21.46.26-61.41-.05-67.23a328.82,328.82,0,0,1,1.2-35.2c.76-6.05.07-24.51-.4-33.43-.32-5.93-2-8-3-8.71a2.62,2.62,0,0,0-2.34-.41c-2.19.62-3.14,7.85-4.07,14.83-.12.89-.24,1.8-.36,2.71-1.28,9.34-4.39,38-4.39,41,0,1-.15,4.17-.36,8.55-.46,9.36-1.23,25-1.23,35.74C404.65,349.87,401.58,417.72,401.12,427.81Z" style="fill:#263238"></path><path d="M404.4,420.23h0a.5.5,0,0,1-.48-.52q.39-10.83.77-21.67a.52.52,0,0,1,.52-.48.49.49,0,0,1,.48.51q-.37,10.85-.77,21.68A.5.5,0,0,1,404.4,420.23Z" style="fill:#263238"></path><path d="M405.32,394.42h0a.49.49,0,0,1-.48-.51c.28-7.93.32-9.38.32-9.53,0-.41.37-9.89.87-23,.53-13.67,1.18-30.44,1.59-41.51a.48.48,0,0,1,.52-.48.5.5,0,0,1,.48.52c-.41,11.07-1.06,27.84-1.59,41.51-.47,12.12-.87,22.58-.87,23s-.18,5.4-.32,9.56A.5.5,0,0,1,405.32,394.42Z" style="fill:#263238"></path><path d="M408.32,314.19h0a.5.5,0,0,1-.49-.51c.08-2.08.13-3.68.16-4.66.23-8.39,3.37-47.21,4.4-60l.24-3A43.14,43.14,0,0,1,415,234.8a.49.49,0,0,1,.64-.28.5.5,0,0,1,.29.64,42.94,42.94,0,0,0-2.29,11l-.24,3c-1,12.75-4.17,51.56-4.4,59.92,0,1-.08,2.58-.16,4.66A.5.5,0,0,1,408.32,314.19Z" style="fill:#263238"></path><path d="M409,420.28h0a.5.5,0,0,1-.45-.55,168.42,168.42,0,0,0,.6-20.84c-.1-7.35-.2-15,.82-22.59a.5.5,0,0,1,1,.13c-1,7.56-.91,15.13-.81,22.45a170.51,170.51,0,0,1-.6,21A.51.51,0,0,1,409,420.28Z" style="fill:#263238"></path><path d="M410.66,370.16h0a.5.5,0,0,1-.48-.52l2.07-63.46a.5.5,0,0,1,.5-.48h0a.5.5,0,0,1,.48.52l-2.07,63.45A.5.5,0,0,1,410.66,370.16Z" style="fill:#263238"></path><path d="M412.86,302.57h0a.5.5,0,0,1-.47-.53l3.35-63.21a.52.52,0,0,1,.53-.48.51.51,0,0,1,.47.53l-3.36,63.22A.5.5,0,0,1,412.86,302.57Z" style="fill:#263238"></path><path d="M417.55,272.87h0a.51.51,0,0,1-.49-.51c.45-13.48,1-30.18,1-33.25a.5.5,0,0,1,1,0c0,3.08-.54,19.8-1,33.28A.5.5,0,0,1,417.55,272.87Z" style="fill:#263238"></path><path d="M415.33,417.64h0a.49.49,0,0,1-.49-.51l1.4-120.74s.31-8.86.68-19.63a.52.52,0,0,1,.51-.48.5.5,0,0,1,.49.52c-.37,10.77-.68,19.61-.68,19.61l-1.4,120.74A.51.51,0,0,1,415.33,417.64Z" style="fill:#263238"></path><path d="M403.31,341.71s2.25,9.68,4.77,7.75,2.36-14.61.87-16.24-3.26-4.13-3.26-4.13Z" style="fill:#263238"></path><path d="M407.41,350.22a1.38,1.38,0,0,1-.52-.1c-2.27-.81-3.89-7.53-4.07-8.29a.74.74,0,0,1,0-.21L405.2,329a.48.48,0,0,1,.38-.39.47.47,0,0,1,.51.2s1.79,2.49,3.23,4.08c1.1,1.2,1.44,6.63,1.07,10.75-.21,2.3-.72,5.25-2,6.23A1.61,1.61,0,0,1,407.41,350.22Zm-3.59-8.52c.64,2.69,2.1,7,3.41,7.48a.52.52,0,0,0,.55-.12c.75-.57,1.35-2.64,1.61-5.52.4-4.46-.11-9.22-.81-10-.93-1-2-2.36-2.61-3.24Z" style="fill:#263238"></path><path d="M414,320.92a26.86,26.86,0,0,0,1.78,8.76,11.8,11.8,0,0,0,4.16,5.05l.59-10.1Z" style="fill:#263238"></path><path d="M420,335.23a.48.48,0,0,1-.26-.07,12.27,12.27,0,0,1-4.36-5.27,27.18,27.18,0,0,1-1.82-9,.5.5,0,0,1,.74-.45l6.54,3.71a.51.51,0,0,1,.25.47l-.59,10.1a.49.49,0,0,1-.27.41A.46.46,0,0,1,420,335.23Zm-5.39-13.43a24.73,24.73,0,0,0,1.68,7.67,12.32,12.32,0,0,0,3.26,4.32l.53-8.88Z" style="fill:#263238"></path><path d="M391.59,266.24s-.7,19.71-1,36.95-2.47,24.64,2.46,31.32,9.5,7.39,11.26,7,4.22-3.52,3.87-8.44-6.68-6-8.09-10.56-2.11-23.23-2.11-36.95,2.11-19,0-23.23S393.7,257.8,391.59,266.24Z" style="fill:#92E3A9"></path><path d="M403.5,342.11c-1.81,0-6.11-.79-10.9-7.3-3.82-5.19-3.54-10.65-3-20.58.17-3.19.36-6.82.45-11.05.34-17.05,1-36.76,1-36.95a.43.43,0,0,1,0-.11c1.19-4.77,2.4-7,3.93-7.15,1.12-.12,2.19.89,3.33,3.18,1.32,2.64,1.08,5.59.67,10.49-.27,3.31-.61,7.42-.61,13,0,14.75.78,32.55,2.09,36.8.6,2,2.19,3.24,3.87,4.58,2,1.59,4,3.23,4.24,6.09.37,5.22-2.24,8.57-4.27,9A4.78,4.78,0,0,1,403.5,342.11Zm-11.41-75.8c0,1.15-.71,20.29-1,36.89-.09,4.25-.28,7.88-.45,11.08-.51,9.7-.8,15,2.81,19.94,4.56,6.18,8.91,7.21,10.76,6.84,1.43-.28,3.81-3.17,3.47-7.92-.17-2.43-2-3.86-3.86-5.38-1.73-1.37-3.51-2.8-4.21-5.06-1.39-4.51-2.13-22.48-2.13-37.1,0-5.58.34-9.72.62-13.05.39-4.72.62-7.57-.57-9.95s-2-2.69-2.34-2.63C394.58,260,393.44,260.94,392.09,266.31Z" style="fill:#263238"></path><path d="M403.06,339a.3.3,0,0,1-.13,0,13.66,13.66,0,0,1-5.14-3,.5.5,0,0,1,.66-.76,12.84,12.84,0,0,0,4.74,2.83.49.49,0,0,1,.35.61A.5.5,0,0,1,403.06,339Z" style="fill:#263238"></path><path d="M396.71,334.66a.52.52,0,0,1-.36-.16,18.12,18.12,0,0,1-4.88-9.39c-1.06-6.92,1.1-41.52,1.8-50.69.06-.81.13-1.58.19-2.3a.5.5,0,0,1,1,.09c-.06.71-.12,1.48-.18,2.29-.7,9.15-2.86,43.62-1.81,50.46a17.12,17.12,0,0,0,4.62,8.85.51.51,0,0,1-.37.85Z" style="fill:#263238"></path><path d="M394.31,268.63h0a.49.49,0,0,1-.45-.54c.46-4.75.74-6.06.75-6.11a.5.5,0,0,1,.6-.38.49.49,0,0,1,.38.59s-.29,1.34-.74,6A.5.5,0,0,1,394.31,268.63Z" style="fill:#263238"></path><path d="M406.19,334.77c-2.61-1.31-11.11-6.12-11.11-13.35,0-1.78.07-5.79.22-11.91a.51.51,0,0,1,.51-.49.5.5,0,0,1,.49.51c-.15,6.11-.22,10.11-.22,11.89,0,6.82,8.79,11.57,10.56,12.45Z" style="fill:#263238"></path><path d="M395.9,306.17h0a.5.5,0,0,1-.48-.52c.37-14.82,1-34.36,1-34.56a.49.49,0,0,1,.51-.48.51.51,0,0,1,.49.51c0,.2-.6,19.74-1,34.56A.51.51,0,0,1,395.9,306.17Z" style="fill:#263238"></path><path d="M418.78,325.19a12.81,12.81,0,0,0,8,.17c3.87-1.4,4.93-4.22,4.93-14.78s-1.41-35.19-1.76-45.74-3.17-14.78-4.93-9.15-1.4,23.93-.7,34.13.85,22.64-1.27,26.16-4.27-3.45-7.72-.33C412.35,318.35,413.85,323.43,418.78,325.19Z" style="fill:#92E3A9"></path><path d="M423.25,326.45a14.26,14.26,0,0,1-4.64-.79,7.76,7.76,0,0,1-5.2-5.49,5.12,5.12,0,0,1,1.58-4.89c2.08-1.87,3.83-.58,5.1.36.66.48,1.28.94,1.73.85.26-.05.53-.31.81-.76,1.67-2.79,2.12-12.46,1.19-25.87-.75-10.89-1-28.73.73-34.32.63-2,1.44-3,2.43-2.84,2.27.3,3.29,6.72,3.47,12.12.12,3.67.38,9.14.65,14.93.52,11.22,1.11,23.94,1.11,30.83,0,10.6-1.08,13.74-5.26,15.25A10.76,10.76,0,0,1,423.25,326.45Zm-6.07-11.13a2.29,2.29,0,0,0-1.52.7,4.16,4.16,0,0,0-1.27,4,6.79,6.79,0,0,0,4.56,4.74h0a12.32,12.32,0,0,0,7.65.17c3.45-1.25,4.6-3.49,4.6-14.31,0-6.87-.59-19.58-1.11-30.78-.27-5.8-.53-11.27-.65-14.95-.25-7.41-1.7-11-2.61-11.16-.26,0-.79.38-1.34,2.15-1.69,5.4-1.41,23.45-.68,34,.45,6.53,1.22,22.19-1.34,26.45a2.3,2.3,0,0,1-1.47,1.23c-.88.18-1.67-.41-2.51-1A4.32,4.32,0,0,0,417.18,315.32Z" style="fill:#263238"></path><path d="M428.89,280.2a.5.5,0,0,1-.5-.46c-.57-8.76-1.31-21.89-1.32-22a.51.51,0,0,1,.47-.53.48.48,0,0,1,.53.47c0,.13.75,13.26,1.32,22a.49.49,0,0,1-.46.53Z" style="fill:#263238"></path><path d="M423.23,323.26a10.33,10.33,0,0,1-2.77-.41.5.5,0,0,1-.34-.62.49.49,0,0,1,.61-.34,7.21,7.21,0,0,0,5.57-.39c3.49-1.92,3.88-18.17,2.72-33.41a.5.5,0,1,1,1-.08c.56,7.34,2,31.5-3.24,34.37A7.35,7.35,0,0,1,423.23,323.26Z" style="fill:#263238"></path><path d="M418.38,322a.54.54,0,0,1-.21,0,18.46,18.46,0,0,1-3.56-2.23.5.5,0,0,1,.64-.77,16.89,16.89,0,0,0,3.35,2.1.5.5,0,0,1,.23.67A.48.48,0,0,1,418.38,322Z" style="fill:#263238"></path><path d="M421.91,319.83a9.32,9.32,0,0,1-3.3-.78.51.51,0,0,1-.28-.65.5.5,0,0,1,.65-.28c2.15.86,3.48.94,4.44.29,1.4-.94,2.1-3.66,2.1-8.08,0-9.69-.76-32.78-.77-33a.5.5,0,0,1,.48-.52.48.48,0,0,1,.52.48c0,.23.77,23.34.77,33.05,0,4.91-.8,7.74-2.54,8.91A3.58,3.58,0,0,1,421.91,319.83Z" style="fill:#263238"></path><path d="M346.55,351.38c.41,11.67-.55,65-.77,76.93H365.2c-.27-7.83-.83-23.9-1-29.68-.27-7.76-1.78-62.1-2.4-68.52a238.09,238.09,0,0,1,.16-29.7c.61-5.4-.77-21.94-1.39-28.35s-3.5-8.78-6.27-8.1S351,271.72,350,279.15s-3.26,32.06-3.17,34.76S346.09,338.21,346.55,351.38Z" style="fill:#92E3A9"></path><path d="M365.21,428.81H345.78a.54.54,0,0,1-.36-.14.55.55,0,0,1-.14-.37c.2-10.78,1.18-65.15.77-76.91h0c-.31-9.08,0-22.36.17-30.3.09-3.68.15-6.33.12-7.16-.1-2.8,2.27-27.69,3.18-34.85.09-.76.19-1.53.28-2.28.86-7.06,1.53-12.64,4.35-13.33a4.14,4.14,0,0,1,3.48.69c1.3.91,2.94,3,3.41,7.85.73,7.58,2,23.28,1.39,28.46a240,240,0,0,0-.16,29.59c.48,5,1.49,38.77,2,56.94.17,5.57.29,9.83.36,11.61l1,29.69a.51.51,0,0,1-.15.36A.47.47,0,0,1,365.21,428.81Zm-18.92-1h18.4l-1-29.16c-.07-1.79-.19-6-.36-11.62-.55-18.16-1.56-51.95-2-56.87a235.64,235.64,0,0,1,.16-29.8c.58-5.1-.66-20.71-1.39-28.25-.34-3.48-1.4-6-3-7.14a3.24,3.24,0,0,0-2.67-.53c-2.15.53-2.89,6.6-3.6,12.48-.09.75-.18,1.52-.28,2.29-1,7.9-3.26,32.11-3.17,34.68,0,.86,0,3.53-.12,7.23-.18,7.92-.48,21.19-.17,30.24h0C347.46,363,346.51,415.93,346.29,427.81Z" style="fill:#263238"></path><path d="M349.32,420.46h0a.5.5,0,0,1-.5-.51l.11-15.54a.51.51,0,0,1,.5-.5h0a.49.49,0,0,1,.49.5L349.82,420A.5.5,0,0,1,349.32,420.46Z" style="fill:#263238"></path><path d="M349.46,401.41h0a.49.49,0,0,1-.49-.5c0-6.38,0-7.9,0-8.05,0-.33.06-7.15.19-19.17.12-11.61.28-26,.36-35.41a.5.5,0,0,1,.5-.5h0a.5.5,0,0,1,.5.5c-.08,9.45-.24,23.81-.36,35.42-.11,10.08-.21,18.79-.19,19.12,0,.09,0,.36,0,8.1A.5.5,0,0,1,349.46,401.41Z" style="fill:#263238"></path><path d="M350.09,333.55h0a.5.5,0,0,1-.5-.51c0-1.75,0-3.1,0-3.93,0-7.12,2-40,2.64-50.81l.15-2.48a31.19,31.19,0,0,1,2-9.55.51.51,0,0,1,.66-.26.5.5,0,0,1,.26.65,31.05,31.05,0,0,0-1.95,9.22l-.15,2.48c-.66,10.8-2.65,43.66-2.64,50.75,0,.83,0,2.18,0,3.94A.5.5,0,0,1,350.09,333.55Z" style="fill:#263238"></path><path d="M353.93,420.43h0a.5.5,0,0,1-.5-.5l.13-33.87a.5.5,0,0,1,.5-.5h0a.52.52,0,0,1,.5.51l-.13,33.87A.49.49,0,0,1,353.93,420.43Z" style="fill:#263238"></path><path d="M354.08,380.89h0a.5.5,0,0,1-.5-.5l.19-53.68a.5.5,0,0,1,.5-.5h0a.5.5,0,0,1,.5.5l-.19,53.68A.5.5,0,0,1,354.08,380.89Z" style="fill:#263238"></path><path d="M354.29,323.71h0a.49.49,0,0,1-.48-.51l1.48-53.47a.51.51,0,0,1,.51-.49.5.5,0,0,1,.49.51l-1.48,53.48A.5.5,0,0,1,354.29,323.71Z" style="fill:#263238"></path><path d="M358.1,298.59h0a.49.49,0,0,1-.49-.5c0-11.39.09-25.52,0-28.11a.5.5,0,0,1,.48-.52.5.5,0,0,1,.52.48c.09,2.61,0,16.75,0,28.16A.5.5,0,0,1,358.1,298.59Z" style="fill:#263238"></path><path d="M360.15,421.05a.5.5,0,0,1-.5-.49l-2.16-102.14s.05-7.49.09-16.6a.5.5,0,0,1,.5-.5h0a.5.5,0,0,1,.5.51c0,9.1-.09,16.59-.09,16.59l2.16,102.12a.49.49,0,0,1-.49.51Z" style="fill:#263238"></path></g><g id="freepik--Floor--inject-135"><path d="M470.67,428.81H12.42a.5.5,0,0,1-.5-.5.5.5,0,0,1,.5-.5H470.67a.51.51,0,0,1,.5.5A.5.5,0,0,1,470.67,428.81Z" style="fill:#263238"></path><path d="M307.61,454.58c-6.47,0-13.35-1.41-13.35-4s6.88-4,13.35-4,13.35,1.42,13.35,4S314.08,454.58,307.61,454.58Zm0-7.07c-7.65,0-12.35,1.77-12.35,3s4.7,3,12.35,3,12.35-1.76,12.35-3S315.26,447.51,307.61,447.51Z" style="fill:#263238"></path><path d="M362.88,445.59c-3.17,0-5.65-1.49-5.65-3.39s2.48-3.4,5.65-3.4,5.64,1.49,5.64,3.4S366,445.59,362.88,445.59Zm0-5.79c-2.52,0-4.65,1.1-4.65,2.4s2.13,2.39,4.65,2.39,4.64-1.1,4.64-2.39S365.39,439.8,362.88,439.8Z" style="fill:#263238"></path><path d="M349.7,457.8c-2.32,0-4.67-.73-4.67-2.11,0-2.77,9.35-2.77,9.35,0C354.38,457.07,352,457.8,349.7,457.8Zm0-3.22c-2.28,0-3.67.72-3.67,1.11s1.39,1.11,3.67,1.11,3.68-.72,3.68-1.11S352,454.58,349.7,454.58Z" style="fill:#263238"></path><path d="M264.23,479c-8.74,0-15.6-2.76-15.6-6.28s6.86-6.28,15.6-6.28,15.61,2.76,15.61,6.28S273,479,264.23,479Zm0-11.56c-8.73,0-14.6,2.73-14.6,5.28s5.87,5.28,14.6,5.28,14.61-2.73,14.61-5.28S273,467.44,264.23,467.44Z" style="fill:#263238"></path><path d="M187.76,470c-1.1,0-6.6-.09-6.6-1.79s5.5-1.78,6.6-1.78,6.61.08,6.61,1.78S188.87,470,187.76,470Zm-5.51-1.79c.51.31,2.39.79,5.51.79s5-.48,5.52-.79c-.51-.31-2.39-.78-5.52-.78S182.76,467.91,182.25,468.22Zm11.14.1h0Z" style="fill:#263238"></path><path d="M220.86,473.22c-4,0-6.93-1.46-6.93-3.39s3-3.39,6.93-3.39,6.92,1.45,6.92,3.39S224.81,473.22,220.86,473.22Zm0-5.78c-3.49,0-5.93,1.26-5.93,2.39s2.44,2.39,5.93,2.39,5.92-1.26,5.92-2.39S224.35,467.44,220.86,467.44Z" style="fill:#263238"></path><path d="M152.42,473.22c-2.73,0-7.89-.51-7.89-2.43s5.16-2.43,7.89-2.43,7.89.51,7.89,2.43S155.15,473.22,152.42,473.22Zm0-3.86c-4.48,0-6.89,1-6.89,1.43s2.41,1.43,6.89,1.43,6.89-1,6.89-1.43S156.9,469.36,152.42,469.36Z" style="fill:#263238"></path><path d="M422.64,444.3c-3.65,0-7.57-.76-7.57-2.43s3.92-2.42,7.57-2.42,7.57.76,7.57,2.42S426.28,444.3,422.64,444.3Zm0-3.85c-4.34,0-6.57,1-6.57,1.42s2.23,1.43,6.57,1.43,6.57-1,6.57-1.43S427,440.45,422.64,440.45Z" style="fill:#263238"></path><path d="M464.41,450.73c-2.8,0-5.64-.84-5.64-2.43,0-3.19,11.28-3.19,11.28,0C470.05,449.89,467.21,450.73,464.41,450.73Zm0-3.86c-2.79,0-4.64.86-4.64,1.43s1.85,1.43,4.64,1.43,4.64-.86,4.64-1.43S467.2,446.87,464.41,446.87Z" style="fill:#263238"></path><path d="M395.65,455.87c-2.34,0-6.28-.44-6.28-2.11s3.94-2.1,6.28-2.1,6.28.44,6.28,2.1S398,455.87,395.65,455.87Zm0-3.21c-3.22,0-5.18.73-5.29,1.11.11.36,2.08,1.1,5.29,1.1s5.15-.73,5.28-1.11C400.8,453.38,398.84,452.66,395.65,452.66Zm5.28,1.11h0Z" style="fill:#263238"></path><path d="M334,440.45c-2.8,0-5-1.21-5-2.75s2.2-2.75,5-2.75,5,1.21,5,2.75S336.76,440.45,334,440.45Zm0-4.5c-2.36,0-4,.92-4,1.75s1.64,1.75,4,1.75,4-.93,4-1.75S336.31,436,334,436Z" style="fill:#263238"></path></g><g id="freepik--Shadow--inject-135"><ellipse cx="154.17" cy="446.56" rx="117.46" ry="14.6" style="fill:#263238"></ellipse><path d="M154.17,461.65c-58,0-118-5.65-118-15.1s60-15.09,118-15.09,118,5.64,118,15.09S212.15,461.65,154.17,461.65Zm0-29.19c-70,0-117,7.29-117,14.09s47,14.1,117,14.1,117-7.29,117-14.1S224.13,432.46,154.17,432.46Z" style="fill:#263238"></path></g><g id="freepik--Character--inject-135"><path d="M62.34,262a70.07,70.07,0,0,0-20.87,18.88C32.53,293.27,26.56,305.69,31,320.11s4,34.29,2.48,43.23-6.46,16.9-5,25.84a125.3,125.3,0,0,0,3,13.92L34,389.68l3.48,7.46s1-11.43,4-15.41S52.9,368.81,52.9,366.82a14.57,14.57,0,0,1,1-4.47l-1,12.92S64.33,357.38,66.32,346s-.5-28.33-.5-32.8-3-30.81-1-38.27S66.82,256.49,62.34,262Z" style="fill:#fff"></path><path d="M31.53,403.6a.5.5,0,0,1-.48-.36,130,130,0,0,1-3-14c-1-5.86.71-11.14,2.49-16.74A66.17,66.17,0,0,0,33,363.26c1.57-9.47,1.85-29.07-2.47-43-4.8-15.46,2.62-28.74,10.51-39.7a71.26,71.26,0,0,1,21-19c1.16-1.39,2.18-1.87,3-1.43,2.3,1.18,1.7,9.45.25,14.87s-.21,21.13.52,30.55c.28,3.56.49,6.37.49,7.59s.17,3.18.39,5.75c.63,7.43,1.58,18.65.1,27.13-2,11.4-13,28.77-13.49,29.51a.5.5,0,0,1-.58.2.51.51,0,0,1-.34-.51l.55-7.09C52,370,49.47,373,46.06,377c-1.65,1.95-3.22,3.79-4.19,5.08C39,385.85,38,397.07,38,397.18a.49.49,0,0,1-.41.45.51.51,0,0,1-.54-.28l-2.82-6L32,403.19a.49.49,0,0,1-.46.41ZM64.41,261c-.4,0-1,.46-1.68,1.3a.44.44,0,0,1-.15.12,70.07,70.07,0,0,0-20.7,18.74C33.74,292.43,26.86,305,31.51,320c4.38,14.09,4.1,33.9,2.5,43.46a68.56,68.56,0,0,1-2.5,9.42c-1.75,5.47-3.4,10.65-2.47,16.26s1.83,9.48,2.4,11.73l2.09-11.24a.5.5,0,0,1,.94-.12l2.72,5.83c.41-3.42,1.54-10.75,3.88-13.87,1-1.32,2.57-3.17,4.23-5.13,3-3.51,7.1-8.33,7.1-9.48a15.15,15.15,0,0,1,1-4.66.51.51,0,0,1,.58-.3.5.5,0,0,1,.38.53l-.83,10.86c2.89-4.77,10.68-18.26,12.27-27.39,1.45-8.35.51-19.5-.11-26.87-.22-2.6-.4-4.64-.4-5.84s-.21-4-.49-7.51c-.78-10.1-2-25.35-.48-30.89,1.67-6.28,1.56-13.05.25-13.72A.41.41,0,0,0,64.41,261Zm-2.07,1h0Z" style="fill:#263238"></path><path d="M238.63,190.46s5.85-3.35,7.24-5.29,2.51-3.62,2.51-3.62-.28,7.51-2.23,10a14.94,14.94,0,0,1-3.9,3.62l-5.57-3.34Z" style="fill:#bababa"></path><path d="M242.25,195.69a.48.48,0,0,1-.26-.07l-5.57-3.34a.52.52,0,0,1-.24-.41.49.49,0,0,1,.21-.43l2-1.39,0,0c.06,0,5.77-3.31,7.08-5.15s2.49-3.59,2.5-3.6a.5.5,0,0,1,.57-.2.52.52,0,0,1,.35.49c0,.32-.31,7.71-2.34,10.32a15.21,15.21,0,0,1-4,3.74A.45.45,0,0,1,242.25,195.69Zm-4.66-3.88,4.65,2.79a15.05,15.05,0,0,0,3.51-3.34c1.26-1.61,1.79-5.56,2-7.91-.41.61-.92,1.34-1.47,2.11-1.41,2-6.92,5.16-7.38,5.42Z" style="fill:#263238"></path><path d="M94.1,335.05s-4.12,11.85-9,18.29-11.6,13.39-12.63,14.94-3.6,25-4.38,32.72-.26,11.85.78,14.17a28.26,28.26,0,0,1,1.54,6.18s.26,4.12,1.29,5.67,3.61,4.89,3.86,7.21.78,5.15.78,5.15-1,1.81-7,1.29-12-3.93-10.9-5.44,2.14-7.7,2.14-7.7a42.48,42.48,0,0,1-.51-7.47c.25-2.32,1-4.89,1-5.92s2.32-22.67.25-34.52.26-17.52,1.55-19.84,6.7-14.17,5.93-20.35-2.32-13.66-2.32-13.66l13.65.78Z" style="fill:#263238"></path><path d="M71.37,441.26q-.91,0-2-.09c-5.27-.46-10.52-3.08-11.36-4.94a1.25,1.25,0,0,1,.09-1.3c.85-1.14,1.75-5.66,2-7.4A41,41,0,0,1,59.6,420c.13-1.21.4-2.46.63-3.55a16,16,0,0,0,.4-2.32c0-.17,0-.63.12-1.68.47-5.61,1.9-22.68.14-32.76-1.5-8.61-.94-15.58,1.6-20.16,1.51-2.72,6.61-14.16,5.87-20.05-.76-6.09-2.3-13.54-2.31-13.61a.5.5,0,0,1,.11-.43.51.51,0,0,1,.41-.18l13.65.78a.48.48,0,0,1,.23.07l13.91,8.5a.5.5,0,0,1,.21.59c-.17.49-4.2,12-9.09,18.43-3,3.93-6.62,8-9.27,11-1.65,1.85-2.95,3.32-3.33,3.9-.8,1.22-3,20-4.3,32.49-.67,6.74-.43,11.29.73,13.91a28.43,28.43,0,0,1,1.59,6.32c.07,1.15.42,4.28,1.21,5.46.15.24.35.51.56.82,1.26,1.81,3.15,4.53,3.38,6.61.25,2.28.76,5.09.77,5.12a.5.5,0,0,1-.06.34C76.65,439.82,75.69,441.26,71.37,441.26ZM67.16,326.31c.38,1.94,1.56,8,2.19,13.06.77,6.13-4.44,17.88-6,20.65-2.44,4.38-2.95,11.13-1.49,19.51,1.77,10.21.34,27.37-.13,33-.07.82-.12,1.47-.12,1.6a15.51,15.51,0,0,1-.42,2.52c-.23,1.08-.49,2.3-.62,3.46a42.75,42.75,0,0,0,.52,7.34.76.76,0,0,1,0,.15c-.1.65-1.08,6.35-2.23,7.91,0,0-.08.1,0,.3.64,1.41,5.61,3.92,10.53,4.35,4.5.39,6-.59,6.38-.94-.13-.73-.52-3-.73-4.94s-2.09-4.54-3.21-6.16l-.58-.84c-1.09-1.63-1.36-5.74-1.37-5.91a27.79,27.79,0,0,0-1.5-6c-1.24-2.79-1.51-7.51-.82-14.42,0-.31,3.15-31,4.47-32.95.42-.63,1.68-2.05,3.41-4,2.65-3,6.26-7.05,9.23-10.95,4.3-5.66,8.06-15.71,8.8-17.78L80,327Z" style="fill:#263238"></path><path d="M71.69,427c-1-1.55-1.29-5.67-1.29-5.67a28.13,28.13,0,0,0-1.54-6.18c-1-2.32-1.55-6.44-.78-14.17.17-1.66.42-4.06.72-6.8a37.75,37.75,0,0,0-6.74,5.93c-.31,7.39-.93,13.47-.93,14,0,1-.78,3.6-1,5.92a42.48,42.48,0,0,0,.51,7.47s-1,6.18-2.15,7.7,5,4.93,10.91,5.44,7-1.29,7-1.29-.52-2.83-.78-5.15S72.72,428.56,71.69,427Z" style="fill:#e0e0e0"></path><path d="M71.37,441.26q-.91,0-2-.09c-5.26-.46-10.52-3.08-11.36-4.94a1.25,1.25,0,0,1,.09-1.3c.85-1.14,1.75-5.66,2-7.4A41,41,0,0,1,59.6,420c.13-1.21.4-2.46.63-3.55a16,16,0,0,0,.4-2.32c0-.17,0-.64.12-1.68.21-2.45.59-7,.81-12.35a.55.55,0,0,1,.14-.32,37.84,37.84,0,0,1,6.84-6,.5.5,0,0,1,.76.48c-.3,2.74-.55,5.13-.72,6.79-.67,6.74-.43,11.29.73,13.91a28.43,28.43,0,0,1,1.59,6.32c.07,1.15.42,4.28,1.21,5.46h0c.15.24.35.51.56.82,1.26,1.81,3.15,4.53,3.38,6.61.25,2.28.76,5.09.77,5.12a.5.5,0,0,1-.06.34C76.65,439.82,75.69,441.26,71.37,441.26Zm-8.82-40.92c-.22,5.27-.6,9.77-.8,12.2-.07.82-.12,1.47-.12,1.6a15.51,15.51,0,0,1-.42,2.52c-.23,1.08-.49,2.3-.62,3.46a42.75,42.75,0,0,0,.52,7.34.76.76,0,0,1,0,.15c-.1.65-1.08,6.35-2.23,7.91,0,0-.08.1,0,.3.64,1.41,5.61,3.92,10.53,4.35,4.5.39,6-.59,6.38-.94-.13-.73-.52-3-.73-4.94s-2.09-4.54-3.21-6.16l-.58-.84c-1.09-1.63-1.36-5.74-1.37-5.91a27.79,27.79,0,0,0-1.5-6c-1.24-2.79-1.51-7.51-.82-14.42.15-1.45.36-3.44.61-5.74A41.58,41.58,0,0,0,62.55,400.34Z" style="fill:#263238"></path><path d="M204.1,330.67s-8,23.7-12.88,36.32-8,34.78-8.24,43.28a72,72,0,0,0,1.29,17.26c.51,1.81,1.8,5.41,3.09,6.18s3.09,2.32,3.35,3.1,9.79,9,6.44,11.85-11.59,0-16.49-.52-4.89-8.5-4.89-9.53a51.57,51.57,0,0,0-2.32-13.91c-2.06-6.18-.52-10.31-.26-14.43s3.61-26.28,3.61-39.41.77-25,.77-25Z" style="fill:#263238"></path><path d="M192.63,450.4a43.39,43.39,0,0,1-7.69-1c-1.58-.31-3.07-.6-4.33-.73-5-.52-5.34-7.81-5.34-10a51.1,51.1,0,0,0-2.3-13.75,23.08,23.08,0,0,1-.63-11.55c.15-1.06.29-2.06.35-3.07.07-1.18.38-3.7.81-7.2,1.05-8.52,2.8-22.78,2.8-32.18,0-13,.76-24.91.77-25a.53.53,0,0,1,.25-.41l26.54-15.2a.5.5,0,0,1,.56,0,.52.52,0,0,1,.16.55c-.08.23-8.05,23.85-12.89,36.34-4.92,12.68-8,34.81-8.21,43.12-.25,8.09.7,15.13,1.27,17.1.71,2.51,1.93,5.33,2.87,5.9,1.25.75,3.23,2.37,3.56,3.36.07.11.63.7,1.16,1.26,3,3.14,6.16,6.71,6,9.33a2.46,2.46,0,0,1-.89,1.8A7.36,7.36,0,0,1,192.63,450.4ZM178.05,346.17c-.11,1.83-.75,12.79-.75,24.69,0,9.47-1.76,23.76-2.8,32.3-.42,3.35-.74,6-.81,7.14s-.21,2.07-.36,3.15c-.45,3.22-.92,6.56.59,11.09a51.92,51.92,0,0,1,2.35,14.07c0,2,.32,8.6,4.44,9,1.3.14,2.82.44,4.42.75,4.41.85,9.4,1.82,11.7-.12a1.47,1.47,0,0,0,.53-1.09c.13-2.4-3.84-6.57-5.74-8.58-1-1-1.3-1.37-1.39-1.64a9.79,9.79,0,0,0-3.13-2.82c-1.72-1-3.15-5.92-3.31-6.47a72.23,72.23,0,0,1-1.31-17.41c.25-8.37,3.32-30.66,8.28-43.45,4.19-10.81,10.73-30,12.45-35.05Z" style="fill:#263238"></path><path d="M175.77,438.61c0,1,0,9,4.89,9.53s13.14,3.35,16.49.52-6.18-11.08-6.44-11.85-2.06-2.32-3.35-3.1-2.58-4.37-3.09-6.18a47.49,47.49,0,0,1-1.05-7.39c-1.53-.89-3.51-2.08-5.08-3.12-2-1.37-4.57,3.14-5.21,5.84.14.59.31,1.2.52,1.84.46-.16.47.1.19.61A52.17,52.17,0,0,1,175.77,438.61Z" style="fill:#e0e0e0"></path><path d="M192.63,450.4a43.39,43.39,0,0,1-7.69-1c-1.58-.31-3.07-.6-4.33-.73-5-.52-5.34-7.81-5.34-10a51.88,51.88,0,0,0-2.11-13.15.48.48,0,0,1,0-.37.45.45,0,0,1-.22-.23c-.19-.59-.37-1.2-.53-1.88a.88.88,0,0,1,0-.23c.52-2.18,2.23-5.59,4.12-6.33a1.93,1.93,0,0,1,1.86.18c1.59,1.06,3.63,2.27,5.05,3.1a.49.49,0,0,1,.25.39,46.26,46.26,0,0,0,1,7.3c.71,2.51,1.93,5.33,2.87,5.9,1.25.75,3.23,2.37,3.56,3.36.07.11.63.7,1.17,1.26,3,3.14,6.15,6.71,6,9.33a2.46,2.46,0,0,1-.89,1.8A7.36,7.36,0,0,1,192.63,450.4Zm-18.45-25a53,53,0,0,1,2.09,13.25c0,2,.32,8.6,4.44,9,1.3.14,2.82.44,4.42.75,4.41.85,9.4,1.82,11.7-.12a1.47,1.47,0,0,0,.53-1.09c.13-2.4-3.83-6.57-5.74-8.58-1-1-1.3-1.37-1.39-1.64a9.79,9.79,0,0,0-3.13-2.82c-1.72-1-3.15-5.92-3.31-6.47a44.34,44.34,0,0,1-1-7.23c-1.43-.83-3.35-2-4.89-3a.93.93,0,0,0-.93-.08c-1.36.53-2.94,3.32-3.49,5.51.12.46.23.89.36,1.3a.64.64,0,0,1,.38.22A.89.89,0,0,1,174.18,425.36Z" style="fill:#263238"></path><path d="M245.74,282.38c-12,0-26.53-10.94-27.23-11.48a1,1,0,1,1,1.21-1.59c.19.15,19,14.29,30.45,10.4,11.24-3.83,10.4-19.67,10.39-19.83a1,1,0,1,1,2-.12c.05.71.93,17.53-11.73,21.84A15.84,15.84,0,0,1,245.74,282.38Z" style="fill:#263238"></path><path d="M257,210.23s8.35,15.87,13.37,20.05,11.69,12.25,11.69,15.59-1.67,8.08-4.45,10.3a10.28,10.28,0,0,1-5.85,2.23s-.28,1.67-4.18,3.06-6.13,1.4-8.91-2.5-1.11-5.29-4.73-6.69S235,246.71,232.23,247l-2.79.28a76.17,76.17,0,0,0-5.85,20.33,81.93,81.93,0,0,1-7.24,22.56S219.14,308,213,321.06s-12.25,21.44-20,24.5-20.6,8.35-20.6,8.35-7.8,31.47-7.8,38.15-1.67,10.86-3.06,14.76-4.18,16.43-3.35,20.61,0,8.07-.27,10.3L157.6,440s5.85,4.73,6.4,6.68,5.29,10,2.79,11.42-10.86,1.39-15-.84-5.29-9.19-5.29-10.58.83-3.62,1.39-5.57-.28-6.4-.28-9.19a16.39,16.39,0,0,1,1.12-7.24c1.11-2.78,2.22-14.48,1.95-21.16s-.84-17.54-.84-17.54l1.67-31.47-.83-11.69s-37.6,1.94-52.35-1.95-29.24-11.7-29.24-11.7-7.52,23.95-9.75,29.52-2.78,7.52-2.78,7.52-2.23,16.43-3.62,21.16-1.68,15-1.12,18.93,2.79,11.42,2.51,13.65-.84,2.23-.56,4.18,3.62,10.58,4.74,11.14,1.94,5.84,1.94,7.24-6.4,2.5-9.74,1.11-7.24-3.9-7.24-5.29,2-7.24,2.23-11.14S42.59,416,43.15,411.56s.83-3.07,1.39-8.08-2.78-31.19-2.5-35.64,3.62-10.58,4.45-14.2,1.39-18.94-.56-28.13-4.45-31.74,0-42.88,16.43-23.95,29.24-26.74a83.32,83.32,0,0,1,32.3-.27c6.69,1.39,27,1.11,34-.28s14.06-2.56,14.06-2.56,3.48,4,18.8-15.54,21.44-29.24,32.58-36.76a82.58,82.58,0,0,1,20.6-10.3s12.25,4.17,15.6,8.07S257,210.23,257,210.23Z" style="fill:#bababa"></path><path d="M161,459.53c-3.32,0-7.07-.6-9.45-1.86-4.53-2.42-5.55-9.78-5.55-11a16.72,16.72,0,0,1,1-4.22c.16-.5.31-1,.45-1.48a19.19,19.19,0,0,0-.06-5.45c-.12-1.31-.24-2.55-.24-3.61a16.81,16.81,0,0,1,1.15-7.42c1.11-2.77,2.18-14.53,1.92-21-.28-6.6-.83-17.43-.84-17.54L151,354.44l-.8-11.14c-4.47.21-38.26,1.64-52-2-13.07-3.45-26.06-10-28.82-11.46-1.15,3.68-7.56,23.94-9.58,29C57.58,364.3,57,366.28,57,366.3c-.08.61-2.24,16.45-3.62,21.17s-1.66,14.83-1.1,18.72c.21,1.52.7,3.65,1.17,5.71.78,3.41,1.51,6.63,1.33,8.07a9.9,9.9,0,0,1-.41,1.94,4.05,4.05,0,0,0-.14,2.11c.28,2,3.57,10.21,4.46,10.76,1.48.74,2.22,6.57,2.22,7.68a1.3,1.3,0,0,1-.7,1.08c-1.62,1.08-6.74,1.75-9.73.5s-7.55-3.85-7.55-5.75a22,22,0,0,1,.76-3.69,49.49,49.49,0,0,0,1.47-7.49c.12-1.73-.52-4.2-1.19-6.82-.8-3.1-1.63-6.32-1.32-8.8a26.84,26.84,0,0,1,.68-3.75,27.16,27.16,0,0,0,.71-4.32c.3-2.69-.58-12-1.36-20.15-.65-6.9-1.27-13.41-1.14-15.46.17-2.81,1.52-6.24,2.71-9.27a39.3,39.3,0,0,0,1.75-5c.84-3.61,1.38-18.78-.56-27.91s-4.5-31.83,0-43.17c4.38-10.94,16.24-24.13,29.6-27a83.17,83.17,0,0,1,32.51-.28c6.84,1.42,27.12,1.05,33.77-.28,6.89-1.38,14-2.55,14.08-2.56a.5.5,0,0,1,.46.16h0a1.35,1.35,0,0,0,.9.15c1.92-.15,6.7-2.4,17.12-15.67,3.1-3.94,5.85-7.53,8.28-10.69,9.64-12.55,15.46-20.13,24.42-26.17a84.21,84.21,0,0,1,20.74-10.37.51.51,0,0,1,.3,0c.51.18,12.42,4.27,15.82,8.23,3.26,3.81,13.74,11.82,13.84,11.9a.43.43,0,0,1,.14.16c.08.16,8.37,15.84,13.25,19.9s11.87,12.27,11.87,16c0,3.43-1.74,8.37-4.64,10.69a10.78,10.78,0,0,1-5.81,2.32c-.31.66-1.29,2-4.36,3.05-4.08,1.46-6.55,1.44-9.49-2.68a13.14,13.14,0,0,1-1.9-3.8,3.46,3.46,0,0,0-2.6-2.71c-3.89-1.49-19-5.52-21.49-5.26l-2.51.25a77.74,77.74,0,0,0-5.68,19.93c-1.56,10.92-6.56,21.24-7.22,22.57.26,1.82,2.41,18.62-3.41,31-6.65,14.21-12.92,21.85-20.31,24.76-7.13,2.8-18.59,7.52-20.37,8.25-.73,3-7.72,31.55-7.72,37.78a38.1,38.1,0,0,1-2.82,14.17L162,407c-1.38,3.85-4.13,16.33-3.32,20.34a27.09,27.09,0,0,1-.12,9.33c-.06.41-.11.79-.16,1.13l-.24,2c1.18,1,5.81,4.87,6.35,6.75a21.89,21.89,0,0,0,1,2.3c1.63,3.56,3.86,8.42,1.57,9.7A14.05,14.05,0,0,1,161,459.53ZM150.64,342.28a.49.49,0,0,1,.49.46l.84,11.7L150.3,386c0,.06.56,10.89.84,17.5s-.82,18.45-2,21.37a16,16,0,0,0-1.08,7.05c0,1,.11,2.23.23,3.52.2,2.21.41,4.49,0,5.81-.14.49-.3,1-.45,1.51a16.33,16.33,0,0,0-.92,3.92c0,1,.94,8,5,10.14s12.27,2.11,14.55.84c1.49-.82-.86-5.94-2-8.4a23.69,23.69,0,0,1-1-2.44c-.37-1.32-3.94-4.57-6.24-6.43a.51.51,0,0,1-.18-.45l.28-2.23c0-.35.1-.73.16-1.16a25.87,25.87,0,0,0,.12-9c-.84-4.25,1.92-16.84,3.37-20.88l.27-.76a37.25,37.25,0,0,0,2.76-13.83c0-6.66,7.49-37,7.81-38.27a.51.51,0,0,1,.3-.34c.12-.05,12.9-5.33,20.61-8.36,7.14-2.8,13.24-10.28,19.78-24.25,6-12.8,3.33-30.44,3.3-30.62a.45.45,0,0,1,0-.3c.05-.11,5.55-10.93,7.19-22.4A77.7,77.7,0,0,1,229,247a.5.5,0,0,1,.4-.27l2.79-.28c2.94-.3,18.27,3.9,21.95,5.32a4.35,4.35,0,0,1,3.18,3.32,12.23,12.23,0,0,0,1.78,3.54c2.6,3.64,4.58,3.66,8.33,2.32,3.49-1.24,3.85-2.67,3.86-2.69a.51.51,0,0,1,.49-.4,9.8,9.8,0,0,0,5.53-2.12c2.67-2.13,4.27-6.72,4.27-9.91,0-3-6.33-10.89-11.52-15.21-4.87-4.07-12.66-18.64-13.43-20.1-1.1-.84-10.7-8.23-13.91-12-3-3.52-13.81-7.38-15.23-7.88a84.53,84.53,0,0,0-20.31,10.2c-8.82,5.95-14.61,13.48-24.19,25.95-2.43,3.17-5.18,6.75-8.28,10.7-10.33,13.14-15.51,16-18,16.06a2.28,2.28,0,0,1-1.29-.3c-1.24.21-7.63,1.28-13.84,2.52-6.72,1.34-27.24,1.72-34.17.28a82.17,82.17,0,0,0-32.09.27c-13,2.83-24.6,15.73-28.88,26.43-4.45,11.12-1.91,33.5,0,42.6s1.41,24.66.56,28.34a39.94,39.94,0,0,1-1.8,5.16c-1.16,3-2.48,6.31-2.65,9-.12,2,.5,8.45,1.15,15.3.82,8.64,1.67,17.57,1.36,20.37A30,30,0,0,1,44.3,408a23,23,0,0,0-.65,3.63c-.29,2.29.51,5.41,1.29,8.42.69,2.7,1.35,5.25,1.21,7.14a49,49,0,0,1-1.49,7.66,23.88,23.88,0,0,0-.73,3.45c0,.88,3.09,3.23,6.93,4.83a12.94,12.94,0,0,0,8.52-.26c.4-.2.52-.36.53-.4,0-1.82-1-6.44-1.67-6.79-1.44-.72-4.75-9.74-5-11.51a5,5,0,0,1,.17-2.53,9.56,9.56,0,0,0,.38-1.78c.16-1.27-.59-4.55-1.31-7.73-.48-2.08-1-4.23-1.19-5.79-.57-4-.28-14.35,1.13-19.14S56,366.26,56,366.1s.6-2.11,2.82-7.64,9.65-29.24,9.73-29.48a.47.47,0,0,1,.29-.31.48.48,0,0,1,.42,0c.15.08,14.6,7.81,29.13,11.65s51.82,2,52.2,1.94Z" style="fill:#263238"></path><path d="M222.66,210.36l-2.59-1.94a53.06,53.06,0,0,1,13.84-12.67l1.65,2.78A50.44,50.44,0,0,0,222.66,210.36Z" style="fill:#7a7a7a"></path><path d="M222.66,210.86a.49.49,0,0,1-.3-.1l-2.59-1.94a.53.53,0,0,1-.19-.33.49.49,0,0,1,.09-.37,53.94,53.94,0,0,1,14-12.8.51.51,0,0,1,.38-.06.56.56,0,0,1,.31.23l1.65,2.78a.51.51,0,0,1-.18.69,50.44,50.44,0,0,0-12.75,11.7A.51.51,0,0,1,222.66,210.86Zm-1.89-2.54,1.79,1.34a52.28,52.28,0,0,1,12.32-11.29l-1.14-1.93A53.34,53.34,0,0,0,220.77,208.32Z" style="fill:#263238"></path><path d="M253.47,245.35c-9.94-5.2-19.74-15-29.13-29.07a152.75,152.75,0,0,1-11.13-19.59l2.95-1.33c.15.35,16.2,35.28,38.81,47.13Z" style="fill:#7a7a7a"></path><path d="M253.47,245.85a.5.5,0,0,1-.23,0c-10-5.25-19.88-15.09-29.32-29.25a155,155,0,0,1-11.17-19.65.5.5,0,0,1,0-.38.48.48,0,0,1,.26-.28L216,194.9a.5.5,0,0,1,.66.25c.16.35,16.12,35.12,38.6,46.9a.5.5,0,0,1,.21.67l-1.5,2.87A.5.5,0,0,1,253.47,245.85Zm-39.59-48.91A155.82,155.82,0,0,0,224.75,216c9.21,13.81,18.8,23.45,28.51,28.68l1-2c-21.13-11.39-36.43-42.55-38.39-46.68Z" style="fill:#263238"></path><path d="M69.05,329.13s-5-9.7-6.41-13.91-.93-16.83.47-19.64c0,0-2.89,17,7.09,24s17.73,1.07,17.73,1.07,15-9.58,24.18-5.37,14.18,29,14.18,29S89.38,343,69.05,329.13Z" style="fill:#263238"></path><path d="M126.29,344.79h0c-.37,0-37.29-1.47-57.51-15.25a.56.56,0,0,1-.16-.18c-.2-.4-5-9.78-6.43-14-1.49-4.48-1-17.14.49-20a.52.52,0,0,1,.61-.25.5.5,0,0,1,.33.56c0,.17-2.72,16.8,6.89,23.51s16.84,1.32,17.14,1.08c.65-.42,15.34-9.7,24.69-5.43s14.26,28.35,14.46,29.37a.51.51,0,0,1-.49.6Zm-56.86-16c18.54,12.55,51.25,14.71,56.24,15-.85-3.87-5.7-24.34-13.77-28-8.86-4-23.55,5.25-23.7,5.34s-8.12,6-18.28-1.08c-5.33-3.72-7.11-10.12-7.58-15.44-.13,4.07.08,8.41.78,10.52C64.41,319,68.87,327.69,69.43,328.79Z" style="fill:#263238"></path><path d="M215.41,228.17S211,236.84,211,242.75s-6.44,1.61-6.44,1.61l-3.23,24.18-8.59-2.69s.53,21,2.68,25.79,8.06,17.73,8.06,22.57-4.3,16.11-4.3,16.11l-7,9.67A31.55,31.55,0,0,0,206,333.8a95.64,95.64,0,0,0,7-12.74c6.13-13.09,3.34-30.91,3.34-30.91a81.93,81.93,0,0,0,7.24-22.56,76.17,76.17,0,0,1,5.85-20.33S216.32,240.16,215.41,228.17Z" style="fill:#263238"></path><path d="M192.16,340.49a.51.51,0,0,1-.43-.24.52.52,0,0,1,0-.55l6.95-9.62c.34-.9,4.24-11.37,4.24-15.87s-5.1-15.83-7.54-21.31l-.48-1.06c-2.16-4.87-2.7-25.11-2.72-26a.52.52,0,0,1,.19-.42.52.52,0,0,1,.45-.07l8,2.5L204,244.3a.49.49,0,0,1,.29-.39.48.48,0,0,1,.48,0c.87.58,3.42,1.93,4.73,1.23.63-.34.94-1.15.94-2.43,0-6,4.32-14.45,4.51-14.81a.5.5,0,0,1,.54-.27.51.51,0,0,1,.4.46c.88,11.58,13.64,18.62,13.77,18.69a.5.5,0,0,1,.21.66,76.66,76.66,0,0,0-5.8,20.18c-1.56,10.92-6.56,21.24-7.22,22.57.26,1.82,2.41,18.62-3.41,31a94.38,94.38,0,0,1-7.05,12.81.52.52,0,0,1-.1.11,31.79,31.79,0,0,1-14.08,6.3Zm1.06-73.95c.11,3.67.75,20.7,2.62,24.9l.47,1.05c2.48,5.55,7.63,17.09,7.63,21.72,0,4.87-4.15,15.83-4.33,16.29l-.06.12-6.24,8.64a31.16,31.16,0,0,0,12.31-5.8,94.55,94.55,0,0,0,6.94-12.62c6-12.79,3.33-30.44,3.3-30.62a.45.45,0,0,1,0-.3c.05-.11,5.55-10.93,7.19-22.4a78.74,78.74,0,0,1,5.69-20c-2.16-1.27-11.92-7.49-13.66-17.55-1.25,2.74-3.67,8.57-3.67,12.83,0,1.68-.49,2.79-1.46,3.31-1.6.85-3.93-.22-5.09-.87l-3.12,23.42a.52.52,0,0,1-.23.35.52.52,0,0,1-.42.06Z" style="fill:#263238"></path><path d="M182.36,345a.49.49,0,0,1-.41-.21.51.51,0,0,1,.11-.7,29.89,29.89,0,0,1,6.4-3.63c6-2.3,12.12-12.32,10.79-20.75l-1.38-8.79a.49.49,0,0,1,.41-.57.5.5,0,0,1,.57.41l1.39,8.8c1.4,8.85-5.11,19.41-11.42,21.83a28.69,28.69,0,0,0-6.17,3.51A.46.46,0,0,1,182.36,345Z" style="fill:#263238"></path><path d="M176.14,350.19a.5.5,0,0,1-.35-.85s1.56-1.56,3.8-3.38a.5.5,0,1,1,.64.77c-2.2,1.79-3.72,3.3-3.73,3.31A.51.51,0,0,1,176.14,350.19Z" style="fill:#263238"></path><path d="M172,347a.5.5,0,0,1-.5-.47,7.2,7.2,0,0,0-.8-3,.5.5,0,0,1,.21-.67.48.48,0,0,1,.67.21,8,8,0,0,1,.92,3.42.5.5,0,0,1-.48.53Z" style="fill:#263238"></path><path d="M168.73,341a.46.46,0,0,1-.29-.1,14.19,14.19,0,0,0-6.23-2.31.5.5,0,0,1,.1-1,15.16,15.16,0,0,1,6.72,2.51.51.51,0,0,1,.11.7A.51.51,0,0,1,168.73,341Z" style="fill:#263238"></path><path d="M136.58,303.61s2.17,16.87,5.54,24.1a143.06,143.06,0,0,0,8.52,15.07l-11.65.84a107.52,107.52,0,0,1-9.5-20c-4.72-12.76-2.55-21.68-2.55-21.68Z" style="fill:#7a7a7a"></path><path d="M139,344.12a.5.5,0,0,1-.42-.23A109.18,109.18,0,0,1,129,323.77c-4.72-12.75-2.66-21.6-2.57-22a.5.5,0,0,1,.57-.37l9.64,1.69a.48.48,0,0,1,.41.42c0,.17,2.2,16.88,5.5,24a143.3,143.3,0,0,0,8.48,15,.5.5,0,0,1,0,.5.47.47,0,0,1-.41.27l-11.65.85ZM127.33,302.5c-.35,2-1.38,10.08,2.63,20.92a112,112,0,0,0,9.29,19.68l10.51-.76a139.81,139.81,0,0,1-8.09-14.42c-3.13-6.71-5.2-21.32-5.54-23.88Z" style="fill:#263238"></path><path d="M133.2,305.3s38.33-7,47.24-6.75,22.18,3.37,25.79,2.89,10.61-4.1,10.61-4.1l.48,6.75a35,35,0,0,1-14,2.89c-7.23-.24-20.49-4.34-29.16-3.85s-20.49,3.13-29.65,4.33-17.59.73-21.45-1-3.61-3.61-3.61-3.61l12.05,2.16Z" style="fill:#7a7a7a"></path><path d="M134.7,308.63c-5,0-9.31-.57-11.82-1.67-4.08-1.79-3.94-3.9-3.91-4.14a.52.52,0,0,1,.2-.34.52.52,0,0,1,.38-.09l12,2.17,1.59.23c2.45-.45,38.5-7,47.27-6.74a131.49,131.49,0,0,1,15.26,1.77c4.7.72,8.75,1.35,10.45,1.12,3.48-.46,10.37-4,10.44-4a.47.47,0,0,1,.47,0,.51.51,0,0,1,.26.4l.48,6.74a.5.5,0,0,1-.29.49,35.06,35.06,0,0,1-14.21,2.94,85.32,85.32,0,0,1-11.65-1.74c-5.87-1.12-12.51-2.39-17.47-2.12a173.46,173.46,0,0,0-18.38,2.55c-4,.68-7.75,1.33-11.22,1.79A76.7,76.7,0,0,1,134.7,308.63Zm-14.6-5.12c.27.6,1,1.59,3.18,2.53,3.9,1.71,12.42,2.08,21.19.93,3.45-.46,7.2-1.1,11.18-1.79a174.37,174.37,0,0,1,18.5-2.55c5.07-.29,11.79,1,17.71,2.13a85.41,85.41,0,0,0,11.5,1.72,34.32,34.32,0,0,0,13.43-2.71l-.4-5.64c-1.86.92-7.06,3.4-10.09,3.81-1.84.24-6-.4-10.73-1.13a130.21,130.21,0,0,0-15.14-1.76c-8.78-.24-46.75,6.67-47.14,6.74h-.16l-1.68-.24Z" style="fill:#263238"></path><path d="M88.37,258.54s-9.88,14-12.53,22.65-2.89,9.89-1.2,10.61,34.22,9.88,38.32,10.36,21.21,4.1,24.58,3.14,4.82-8.68,4.82-10.13,6.51-13.25,9.64-26.27,6-16.26,6-16.26l-66.7.84Z" style="fill:#7a7a7a"></path><path d="M135.85,306c-3.83,0-11.31-1.31-17-2.32-2.56-.45-4.77-.84-5.91-1-4.07-.48-36.55-9.58-38.46-10.4-2.15-.92-1.72-2.58.92-11.21s12-22,12.59-22.78l2.88-5a.48.48,0,0,1,.43-.25l66.7-.84a.47.47,0,0,1,.46.29.49.49,0,0,1-.07.54s-2.81,3.39-5.86,16a131.26,131.26,0,0,1-7.89,21.85,32.6,32.6,0,0,0-1.74,4.3c0,1.36-1.43,9.53-5.18,10.61A7.36,7.36,0,0,1,135.85,306ZM91.56,254l-2.75,4.82,0,0c-.1.14-9.86,14-12.46,22.51s-2.73,9.47-1.49,10,34.1,9.85,38.19,10.33c1.16.13,3.39.52,6,1,6.42,1.12,16.11,2.83,18.42,2.16,3-.85,4.46-8,4.46-9.64,0-.56.56-1.84,1.82-4.7a130,130,0,0,0,7.84-21.69c2.32-9.66,4.49-14,5.49-15.63Zm-3.19,4.57h0Z" style="fill:#263238"></path><path d="M97.77,277.1s-1,36.63,0,41.21,13.5,28.44,14.22,29.16,6-.48,6-.48-14.22-26.27-15.18-29.4-1.93-41.46-1.93-41.46S99.7,273.24,97.77,277.1Z" style="fill:#7a7a7a"></path><path d="M113.23,348.2a2.46,2.46,0,0,1-1.59-.37c-.7-.7-13.37-24.71-14.36-29.42s0-39.83,0-41.33a.56.56,0,0,1,.06-.21c.78-1.56,1.54-2.35,2.43-2.28s1.55,1.22,1.61,1.35a.58.58,0,0,1,0,.18c.33,13.23,1.16,38.89,1.9,41.32.94,3.05,15,29.05,15.15,29.31a.5.5,0,0,1-.33.73A25.74,25.74,0,0,1,113.23,348.2Zm-15-71c-.06,2.24-.92,36.64,0,41,1,4.56,13.42,28.11,14.1,28.92.35.23,2.53,0,4.9-.49-2.15-4-14-26-14.9-28.91-1-3.11-1.88-38.84-2-41.48-.13-.25-.4-.65-.69-.66C99.59,275.58,99.06,275.69,98.27,277.22Z" style="fill:#263238"></path><path d="M97.77,318.81a.51.51,0,0,1-.31-.11.5.5,0,0,1-.08-.7c.24-.3,2.38-2.89,4.21-2.53.81.16,1.39.82,1.72,2a.5.5,0,1,1-1,.28c-.23-.77-.55-1.2-1-1.28-1-.19-2.48,1.24-3.24,2.17A.47.47,0,0,1,97.77,318.81Z" style="fill:#263238"></path><path d="M89.1,256.85s-11.33,10.61-11.33,13.74,4.82,4.58,8,5.78,46,14.71,50.13,12.54,6.27-14,6.27-14l13.39-22.15-61-.68Z" style="fill:#7a7a7a"></path><path d="M134.37,289.62c-9.35,0-47.06-12.1-48.83-12.78l-1-.37c-3.25-1.21-7.29-2.71-7.29-5.88s10.31-13,11.49-14.1h0l5.35-4.75a.54.54,0,0,1,.34-.13l61.06.68a.51.51,0,0,1,.43.26.5.5,0,0,1,0,.5L142.6,275.11c-.23,1.19-2.4,12.06-6.51,14.24A4,4,0,0,1,134.37,289.62Zm-44.94-32.4c-4.49,4.2-11.16,11.23-11.16,13.37,0,2.47,3.68,3.84,6.64,4.94l1,.38c4.42,1.69,46,14.51,49.72,12.55,3.84-2,6-13.51,6-13.62a.49.49,0,0,1,.06-.17l12.94-21.4-60-.66Z" style="fill:#263238"></path><path d="M60.41,442.47c0-1.4-.83-6.69-1.95-7.24S54,426,53.73,424.09s.28-1.95.56-4.18-1.95-9.75-2.51-13.65a67.2,67.2,0,0,1,.1-13c-2.11-.09-5.75,2.64-7.47,4a44.06,44.06,0,0,1,.13,6.15c-.56,5-.83,3.62-1.39,8.08s2.78,11.69,2.51,15.59-2.23,9.75-2.23,11.14,3.9,3.9,7.24,5.29S60.41,443.86,60.41,442.47Z" style="fill:#fff"></path><path d="M54.54,444.72a10.81,10.81,0,0,1-4.06-.68c-2.92-1.22-7.55-3.85-7.55-5.75a22,22,0,0,1,.76-3.69,49.49,49.49,0,0,0,1.47-7.49c.12-1.73-.52-4.2-1.19-6.82-.8-3.1-1.63-6.32-1.32-8.8a26.84,26.84,0,0,1,.68-3.75,27.16,27.16,0,0,0,.71-4.32,41.57,41.57,0,0,0-.13-6.06.53.53,0,0,1,.18-.42c2-1.59,5.57-4.29,7.82-4.15a.5.5,0,0,1,.35.18.46.46,0,0,1,.12.37,66.86,66.86,0,0,0-.1,12.85c.21,1.52.7,3.65,1.17,5.71.78,3.41,1.51,6.63,1.33,8.07a9.9,9.9,0,0,1-.41,1.94,4.05,4.05,0,0,0-.14,2.11c.28,2,3.57,10.2,4.46,10.76,1.48.74,2.22,6.57,2.22,7.68a1.3,1.3,0,0,1-.7,1.08A11.94,11.94,0,0,1,54.54,444.72Zm-9.62-47.16a41.44,41.44,0,0,1,.12,6A30,30,0,0,1,44.3,408a23,23,0,0,0-.65,3.63c-.29,2.29.51,5.41,1.29,8.42.69,2.7,1.35,5.25,1.21,7.14a49,49,0,0,1-1.49,7.66,23.88,23.88,0,0,0-.73,3.45c0,.88,3.09,3.23,6.93,4.83a12.94,12.94,0,0,0,8.52-.26c.4-.2.52-.36.53-.4,0-1.82-1-6.44-1.67-6.79-1.44-.72-4.75-9.74-5-11.51a5,5,0,0,1,.17-2.53,9.56,9.56,0,0,0,.38-1.78c.16-1.27-.59-4.55-1.31-7.73-.48-2.08-1-4.23-1.19-5.79a65.76,65.76,0,0,1,0-12.5C49.9,394.08,47.58,395.42,44.92,397.56Z" style="fill:#263238"></path><path d="M146.46,446.64c0,1.39,1.11,8.36,5.29,10.58s12.53,2.23,15,.84-2.23-9.47-2.79-11.42-6.4-6.68-6.4-6.68l.28-2.23c.27-2.23,1.11-6.13.27-10.3,0,0-3.37-6.94-4.86-8.92s-4.6,6.13-4.6,6.13a16.39,16.39,0,0,0-1.12,7.24c0,2.79.84,7.24.28,9.19S146.46,445.25,146.46,446.64Z" style="fill:#fff"></path><path d="M161,459.53c-3.32,0-7.07-.6-9.45-1.86-4.53-2.42-5.55-9.78-5.55-11a16.72,16.72,0,0,1,1-4.22c.16-.5.31-1,.45-1.48a19.19,19.19,0,0,0-.06-5.45c-.12-1.31-.24-2.55-.24-3.61a16.81,16.81,0,0,1,1.15-7.42c.58-1.52,2.63-6.51,4.38-6.76a1.14,1.14,0,0,1,1.09.51,89.11,89.11,0,0,1,4.91,9,.61.61,0,0,1,.05.12,27.09,27.09,0,0,1-.12,9.33c-.06.41-.11.79-.16,1.13l-.24,2c1.18,1,5.81,4.87,6.35,6.75a21.89,21.89,0,0,0,1,2.3c1.63,3.56,3.86,8.42,1.57,9.7A14.05,14.05,0,0,1,161,459.53Zm-8.21-40.84h0c-.8.12-2.48,3.27-3.58,6.13a16.1,16.1,0,0,0-1.08,7.06c0,1,.11,2.23.23,3.52.2,2.21.41,4.49,0,5.81-.14.49-.3,1-.45,1.51a16.33,16.33,0,0,0-.92,3.92c0,1,.94,8,5,10.14s12.27,2.11,14.55.84c1.49-.82-.86-5.94-2-8.4a23.69,23.69,0,0,1-1-2.44c-.42-1.48-4.64-5.14-6.24-6.43a.51.51,0,0,1-.18-.45l.28-2.23c0-.35.1-.73.16-1.16a26.21,26.21,0,0,0,.14-8.92,89.94,89.94,0,0,0-4.79-8.78C152.82,418.71,152.77,418.69,152.75,418.69Z" style="fill:#263238"></path><path d="M102.35,241.43s-9.16,2.41-14.94,1-12-1.93-14,3.13-2.65,10.85,4.58,14,15.91,0,15.91,0l18.32-3.37S111,240.46,102.35,241.43Z" style="fill:#fff"></path><path d="M85.38,261.41A19.12,19.12,0,0,1,77.81,260C68.87,256.09,72,248,73,245.34c2.47-6.46,11.58-4.18,14.57-3.44,5.59,1.4,14.61-.93,14.7-1h.07a6.52,6.52,0,0,1,5,1.51c4.59,3.8,5.36,13.25,5.39,13.65a.5.5,0,0,1-.4.53L94,260A27.38,27.38,0,0,1,85.38,261.41ZM80.66,241.9c-3.6,0-5.79,1.25-6.76,3.8-2.6,6.81-1.27,10.93,4.31,13.34,7,3,15.45,0,15.54,0l17.94-3.31c-.21-1.91-1.27-9.43-5-12.51a5.52,5.52,0,0,0-4.26-1.29c-.73.19-9.44,2.39-15.15,1A28.37,28.37,0,0,0,80.66,241.9Z" style="fill:#263238"></path><path d="M78,260a.5.5,0,0,1-.5-.5.5.5,0,0,1,.5-.5s1.49-.07,3.21-2.44,1.52-7.5-1.61-10.18a2,2,0,0,0-2.5-.24c-1.85,1.11-3.23,4.51-3,5.78a3.49,3.49,0,0,0,2.16,2.29,3,3,0,0,0,2.86-.19,2.16,2.16,0,0,0,.78-2.28,3.28,3.28,0,0,0-2.29-2.59c-.64-.13-.79,0-.79,0a1.73,1.73,0,0,0,.34.94.5.5,0,0,1-.83.55c-.14-.21-.83-1.32-.34-2.05s1.48-.47,1.82-.4a4.22,4.22,0,0,1,3.07,3.38,3.11,3.11,0,0,1-1.21,3.31,4,4,0,0,1-3.78.28,4.52,4.52,0,0,1-2.77-3c-.39-1.78,1.25-5.56,3.41-6.86a3,3,0,0,1,3.67.35c3.58,3.06,3.89,8.61,1.77,11.51S78.09,260,78,260Z" style="fill:#263238"></path><path d="M85.24,257.59a.48.48,0,0,1-.26-.07.51.51,0,0,1-.17-.69c1.29-2.14,1.46-6.92-.74-11.58-1.94-4.09-8-1.47-8-1.44a.5.5,0,1,1-.4-.91c2.4-1.07,7.45-2.05,9.33,1.93,2.07,4.36,2.37,9.74.7,12.52A.51.51,0,0,1,85.24,257.59Z" style="fill:#263238"></path><path d="M137.81,233.37s10.45,10.46,13.65,14.08a30.17,30.17,0,0,1,4,5.33s-16.63,4.7-20.69,4.7-7.94.13-7.94.13-14.67,1.79-17.65,1.36-8.53-1.07-9.6-3.84,1.71-22.61,6.61-23.68S137.81,233.37,137.81,233.37Z" style="fill:#92E3A9"></path><path d="M110.54,259.53a10.09,10.09,0,0,1-1.38-.07l-.47-.06c-3.15-.44-8.41-1.18-9.53-4.09-.89-2.33.67-15.37,3.88-21.32.95-1.77,2-2.78,3.1-3,4.93-1.07,30.63,1.79,31.72,1.91a.47.47,0,0,1,.3.14c.11.11,10.5,10.51,13.67,14.1a30.53,30.53,0,0,1,4.13,5.44.5.5,0,0,1,0,.43.55.55,0,0,1-.32.28c-.68.19-16.75,4.71-20.83,4.71s-7.88.13-7.92.13C126.4,258.17,115.16,259.53,110.54,259.53Zm-.75-27.81a19.11,19.11,0,0,0-3.44.22c-.8.18-1.64,1.05-2.43,2.52-3.2,5.93-4.56,18.58-3.82,20.49.9,2.36,5.8,3.05,8.73,3.46l.47.06c2.89.42,17.37-1.34,17.52-1.36s4-.13,8-.13c3.5,0,16.87-3.65,19.93-4.5a38.12,38.12,0,0,0-3.67-4.7c-3-3.36-12.31-12.74-13.5-13.93C135.63,233.64,118,231.72,109.79,231.72Z" style="fill:#263238"></path><line x1="126.88" y1="257.61" x2="137.33" y2="250.57" style="fill:#fff"></line><path d="M126.88,258.11a.49.49,0,0,1-.41-.22.5.5,0,0,1,.13-.7l10.45-7a.5.5,0,0,1,.7.13.51.51,0,0,1-.14.7l-10.45,7A.49.49,0,0,1,126.88,258.11Z" style="fill:#263238"></path><path d="M136.05,225.59l2.38,9.49s-27.59.21-28.89,1.29-6,9.91-6,14.44,4.09,19.62.86,22.42-5.39.21-7.33-5.82-2.8-12.93-2.58-15.31,2.37-12.93,2.37-12.93L100.59,228Z" style="fill:#7a7a7a"></path><path d="M101.94,274.86a3,3,0,0,1-.73-.1c-1.77-.5-3.2-2.72-4.64-7.2-2-6.27-2.83-13.15-2.61-15.5s2.29-12.56,2.38-13l3.78-11.25a.51.51,0,0,1,.44-.34L136,225.09a.53.53,0,0,1,.52.38l2.37,9.49a.49.49,0,0,1-.09.42.5.5,0,0,1-.39.2c-10.39.08-27.34.47-28.59,1.19-1.18,1-5.83,9.64-5.83,14a50.92,50.92,0,0,0,.83,6.46c1.08,6.66,2.3,14.22-.14,16.34A4.35,4.35,0,0,1,101.94,274.86Zm-1-46.4L97.3,239.33s-2.14,10.5-2.35,12.82.67,9.19,2.57,15.1c1.29,4,2.58,6.16,4,6.54a2.81,2.81,0,0,0,2.56-.94c2-1.76.75-9.65-.19-15.42a52.2,52.2,0,0,1-.84-6.62c0-4.74,4.9-13.73,6.21-14.82s21.41-1.35,28.57-1.41l-2.12-8.46Z" style="fill:#263238"></path><path d="M126.82,235.61c-3.68,0-6.56-1.76-6.56-4s2.88-4,6.56-4,6.56,1.76,6.56,4S130.5,235.61,126.82,235.61Zm0-7c-3,0-5.56,1.38-5.56,3s2.55,3,5.56,3,5.56-1.38,5.56-3S129.84,228.59,126.82,228.59Z" style="fill:#263238"></path><path d="M110.93,342.79s3,11.31,4.91,12.59,9.81-.86,9.81-.86-3.62-3.62-4.26-7a51.85,51.85,0,0,1-.43-9Z" style="fill:#263238"></path><path d="M118,356.28a4.59,4.59,0,0,1-2.44-.49c-2-1.34-4.8-11.69-5.11-12.87a.51.51,0,0,1,.29-.59l10-4.26a.51.51,0,0,1,.7.48,50.85,50.85,0,0,0,.42,8.84c.6,3.22,4.09,6.75,4.12,6.78a.48.48,0,0,1,.13.48.49.49,0,0,1-.35.36A36.88,36.88,0,0,1,118,356.28Zm-6.47-13.2c1.17,4.33,3.34,11.05,4.59,11.88s5.57,0,8.59-.71c-1.08-1.21-3.31-4-3.82-6.67a47.19,47.19,0,0,1-.45-8.29Z" style="fill:#263238"></path><path d="M126.93,251.5s.43,20.27.85,25.17-4,18.77-4,24.32-.42,13.22-.21,16a97.54,97.54,0,0,1-.64,10.67l1.49,1.07a5.8,5.8,0,0,1-.21,2.56,3.42,3.42,0,0,0,.21,3.19,4.8,4.8,0,0,1,.64,3.2c-.21.64-1.7.64-5.54,2.78s-9,4.69-9,4.69a9.67,9.67,0,0,1-1.07-5.33c.43-2.56-2.34-3-1.92-5.76s2.35-4.48,1.92-6.19-1.07-1.28-1.49-3.62-2.35-15.57-2.77-21.12,3-27.09,3-27.09-2.42-9.15-4.12-16.41S105.23,244,105.23,244s4.8,0,10.61,4.74" style="fill:#92E3A9"></path><path d="M110.51,345.64a.51.51,0,0,1-.44-.26,10.11,10.11,0,0,1-1.12-5.66,2.79,2.79,0,0,0-.84-2.37A4.09,4.09,0,0,1,107,334a11.66,11.66,0,0,1,1.21-3.41A4.17,4.17,0,0,0,109,328a3.27,3.27,0,0,0-.59-1.27,5.2,5.2,0,0,1-.91-2.38c-.39-2.15-2.35-15.55-2.78-21.17-.42-5.4,2.69-25.28,3-27.1-.27-1-2.51-9.55-4.1-16.32-1.72-7.31,1.09-15.57,1.21-15.92a.5.5,0,0,1,.47-.33c.21,0,5,0,10.93,4.85a.5.5,0,0,1-.64.78c-4.69-3.84-8.73-4.5-9.93-4.61-.52,1.67-2.52,8.81-1.06,15,1.68,7.16,4.09,16.3,4.12,16.4a.66.66,0,0,1,0,.2c0,.22-3.4,21.55-3,27,.43,5.59,2.38,18.93,2.77,21.07a4.21,4.21,0,0,0,.76,2,4.45,4.45,0,0,1,.73,1.6,4.86,4.86,0,0,1-.79,3.26,10.63,10.63,0,0,0-1.12,3.12,3.09,3.09,0,0,0,.89,2.62,3.79,3.79,0,0,1,1,3.15,8.75,8.75,0,0,0,.81,4.57c1.34-.67,5.36-2.71,8.48-4.45a32,32,0,0,1,4.27-2,4.06,4.06,0,0,0,1.05-.5,4.39,4.39,0,0,0-.6-2.78,4,4,0,0,1-.23-3.68,5,5,0,0,0,.19-2.06l-1.31-.93a.5.5,0,0,1-.21-.46A95.84,95.84,0,0,0,123,317c-.13-1.63,0-4.92.06-8.42.08-2.59.15-5.28.15-7.61,0-2.69,1-7.1,2-11.77,1.1-4.92,2.23-10,2-12.5-.43-4.87-.85-25-.86-25.2a.51.51,0,0,1,.49-.52.49.49,0,0,1,.51.49c0,.21.43,20.31.85,25.14.23,2.66-.92,7.82-2,12.81-1,4.41-2,9-2,11.55,0,2.34-.07,5-.15,7.64-.09,3.47-.18,6.74-.06,8.32a91.08,91.08,0,0,1-.61,10.46l1.25.9a.5.5,0,0,1,.21.34,6.18,6.18,0,0,1-.26,2.85,2.94,2.94,0,0,0,.19,2.72,5.25,5.25,0,0,1,.69,3.61c-.18.54-.7.74-1.64,1.11a30.87,30.87,0,0,0-4.14,1.94c-3.81,2.12-8.93,4.68-9,4.71A.59.59,0,0,1,110.51,345.64Z" style="fill:#263238"></path><path d="M124.16,321s-5.55,1.28-6,3.84.64,10,0,13-1.28,9.17.42,12.37,5.76,4.26,7,4.26,9.81-2.34,10.88-3.62-.43-4-.43-4-2.56-12.38-3.41-16.21a16.53,16.53,0,0,0-3.2-7c-.85-1.07-1.92-2.56-1.92-2.56l2.87-32.3-3-.64Z" style="fill:#7a7a7a"></path><path d="M125.65,355c-1.35,0-5.63-1.07-7.48-4.53s-1.1-9.79-.47-12.71a36.05,36.05,0,0,0,0-7.2,35.09,35.09,0,0,1,0-5.79c.42-2.5,4.66-3.8,6-4.15L127,288.05a.53.53,0,0,1,.2-.36.52.52,0,0,1,.4-.08l3,.64a.48.48,0,0,1,.39.53l-2.84,32.12c.29.4,1.11,1.54,1.79,2.38a17.44,17.44,0,0,1,3.3,7.25c.81,3.65,3.19,15.14,3.4,16.14.27.53,1.52,3.13.33,4.55S126.83,355,125.65,355Zm2.24-66.32-3.23,32.39a.5.5,0,0,1-.39.43c-1.45.34-5.29,1.61-5.59,3.44a33.73,33.73,0,0,0,0,5.57,34.69,34.69,0,0,1-.06,7.46c-.69,3.25-1.16,9.13.38,12s5.46,4,6.6,4,9.59-2.36,10.5-3.44c.69-.83-.14-2.85-.49-3.5a.69.69,0,0,1,0-.13c0-.13-2.57-12.41-3.41-16.21a16.24,16.24,0,0,0-3.1-6.83c-.85-1.07-1.93-2.57-1.94-2.58a.52.52,0,0,1-.09-.34l2.83-31.86ZM124.16,321h0Z" style="fill:#263238"></path><path d="M126.08,340a11,11,0,0,0,5.12-2.35c2.13-1.92,4.9-1.49,6,.64s.21,4.7-1.28,6.62a47.86,47.86,0,0,1-3.41,3.84s-5.12-2.14-6.19-4.48A5.51,5.51,0,0,1,126.08,340Z" style="fill:#263238"></path><path d="M132.48,349.27a.71.71,0,0,1-.2,0c-.21-.09-5.31-2.24-6.44-4.74a6,6,0,0,1-.22-4.67.49.49,0,0,1,.39-.29,10.59,10.59,0,0,0,4.85-2.23,4.78,4.78,0,0,1,4-1.28,3.83,3.83,0,0,1,2.72,2.07c1,2.07.53,4.74-1.34,7.14a46.4,46.4,0,0,1-3.45,3.89A.53.53,0,0,1,132.48,349.27Zm-6-8.81a5.13,5.13,0,0,0,.3,3.62c.75,1.66,4.05,3.4,5.61,4.09a45.56,45.56,0,0,0,3.13-3.55c1.63-2.09,2.09-4.37,1.23-6.08a2.77,2.77,0,0,0-2-1.54,3.78,3.78,0,0,0-3.19,1.05A11.19,11.19,0,0,1,126.45,340.46Z" style="fill:#263238"></path><polyline points="126.08 340.02 126.29 324.88 129.28 326.58 130.98 334.48" style="fill:#263238"></polyline><path d="M126.08,340.52h0a.49.49,0,0,1-.49-.51l.21-15.14a.5.5,0,0,1,.25-.43.5.5,0,0,1,.5,0l3,1.71a.51.51,0,0,1,.24.33l1.7,7.89a.5.5,0,0,1-1,.21l-1.66-7.67-2.06-1.18-.2,14.3A.51.51,0,0,1,126.08,340.52Z" style="fill:#263238"></path><path d="M242.43,214.61s-4.43-4-6.53-4-3,2.56-3,2.56S240.1,210.88,242.43,214.61Z" style="fill:#fff"></path><path d="M242.43,215.11a.46.46,0,0,1-.33-.13c-.42-.37-1.11-.95-1.9-1.55-2.82-1.11-7.12.24-7.17.26a.51.51,0,0,1-.52-.13.52.52,0,0,1-.11-.52c0-.12,1.08-2.89,3.5-2.89,1.32,0,3.3,1.28,4.81,2.41a4.51,4.51,0,0,1,2.14,1.79.48.48,0,0,1-.1.64A.49.49,0,0,1,242.43,215.11Zm-6.53-4a2.61,2.61,0,0,0-2.05,1.28,16.2,16.2,0,0,1,4.26-.42A5,5,0,0,0,235.9,211.15Z" style="fill:#263238"></path><path d="M232.87,213.21a4.3,4.3,0,0,0,3,4c3,.93,6.53-2.57,6.53-2.57S236.84,210.18,232.87,213.21Z" style="fill:#263238"></path><path d="M237,217.83a4,4,0,0,1-1.23-.18,4.75,4.75,0,0,1-3.39-4.44.5.5,0,0,1,.2-.39c4.22-3.23,9.93,1.21,10.17,1.4a.5.5,0,0,1,0,.75C242.65,215.1,239.88,217.83,237,217.83Zm-3.6-4.37a3.73,3.73,0,0,0,2.66,3.24c2.12.65,4.59-1.19,5.58-2C240.27,213.74,236.33,211.46,233.39,213.46Z" style="fill:#263238"></path><path d="M220.24,191.94s1.3,3.91-1.05,11.2-4.69,13-4.69,13l-.52-7.82s-2.34.26-4.17,10.16a53.26,53.26,0,0,0,0,20.06c.53,2.35,2.09,14.59,2.09,15.89s-4.17-6.25-4.17-6.25a162.58,162.58,0,0,0-.78,17.46,66.62,66.62,0,0,1-3.91,21.1L196,273s2.86,7-1.31,13a51.07,51.07,0,0,1-9.11,9.9s-.79-7.3-.79-13.81a74.6,74.6,0,0,1,.79-11.2s-2.87,7.29-3.13,12.5a74.76,74.76,0,0,0,.26,10.16s-6.51-4.69-8.08-7-6-10.68-6-10.68l-.52,8.59s-3.39,2.09-7.29-9.9-5-14.07-4.43-16.93a20.3,20.3,0,0,1,1.56-4.95s13.65-7.1,16.34-15.4,10.75-20,20.13-28.89S217.89,192.46,220.24,191.94Z" style="fill:#fff"></path><path d="M185.59,296.39a.65.65,0,0,1-.2,0,.5.5,0,0,1-.3-.41c0-.07-.79-7.4-.79-13.86,0-2.55.12-4.83.27-6.66a36.08,36.08,0,0,0-1.61,8,72.89,72.89,0,0,0,.26,10.08.49.49,0,0,1-.25.48.5.5,0,0,1-.54,0c-.27-.2-6.61-4.77-8.2-7.17-1.16-1.73-3.82-6.63-5.19-9.16l-.41,6.83a.5.5,0,0,1-.24.4,2.09,2.09,0,0,1-1.79,0c-2.16-.79-4.32-4.32-6.24-10.21-.75-2.29-1.39-4.22-1.93-5.86-2.33-7-3-8.88-2.51-11.32a20.52,20.52,0,0,1,1.6-5.08.47.47,0,0,1,.22-.22c.13-.08,13.5-7.1,16.09-15.12,2.77-8.56,10.91-20.26,20.27-29.09s23.64-16,26-16.54a.51.51,0,0,1,.58.33c0,.16,1.33,4.15-1,11.51s-4.68,13-4.7,13.06a.52.52,0,0,1-.55.31.51.51,0,0,1-.42-.46l-.46-6.95c-.71.79-2.07,3-3.23,9.35a52.76,52.76,0,0,0,0,19.86c.53,2.36,2.1,14.71,2.1,16a.62.62,0,0,1-.44.64c-.38.1-.81.2-3.89-5.25-.23,2.55-.62,8.1-.62,15.82A67.89,67.89,0,0,1,203.51,287a.51.51,0,0,1-.44.32.46.46,0,0,1-.47-.28l-5.21-10.21a13.86,13.86,0,0,1-2.28,9.49,52.47,52.47,0,0,1-9.21,10A.51.51,0,0,1,185.59,296.39Zm0-26h.13a.51.51,0,0,1,.36.57,74.74,74.74,0,0,0-.78,11.12c0,5.05.48,10.64.69,12.81a51.7,51.7,0,0,0,8.3-9.19c4-5.7,1.28-12.48,1.25-12.55a.5.5,0,0,1,.91-.42L203,285.5a66.19,66.19,0,0,0,3.49-19.83,168.61,168.61,0,0,1,.78-17.52.5.5,0,0,1,.94-.18c1.09,2,2.34,4.1,3.14,5.28-.35-3.44-1.54-12.58-2-14.57a53.55,53.55,0,0,1,0-20.26c1.8-9.77,4.15-10.52,4.61-10.57a.5.5,0,0,1,.37.12.47.47,0,0,1,.18.35l.37,5.59c.89-2.3,2.39-6.32,3.87-10.92,1.8-5.62,1.39-9.2,1.15-10.43-3.33,1.13-16.24,7.8-25.08,16.15-9.1,8.6-17.33,20.39-20,28.68-2.59,8-14.85,14.77-16.43,15.61a20.6,20.6,0,0,0-1.45,4.68c-.4,2.19.21,4,2.48,10.82l1.93,5.87c2.39,7.33,4.52,9.13,5.58,9.56a1.36,1.36,0,0,0,.76.12l.5-8.26a.5.5,0,0,1,.4-.45.48.48,0,0,1,.54.25c0,.08,4.44,8.34,6,10.64,1.16,1.73,5.24,4.89,7.06,6.25a76.38,76.38,0,0,1-.16-9.12c.26-5.24,3-12.37,3.16-12.67A.5.5,0,0,1,185.59,270.38Z" style="fill:#263238"></path><path d="M166.83,246.91s-8.6-3.39-16.94-2.35-22.14,17.72-21.62,23.19,9.64,6.77,15.89,2.08,12.51-16.41,13.81-17.19S166.83,246.91,166.83,246.91Z" style="fill:#7a7a7a"></path><path d="M135.65,273.22a10.68,10.68,0,0,1-4.3-.85,5.56,5.56,0,0,1-3.58-4.57c-.57-6,13.8-22.7,22.06-23.73s16.83,2.23,17.18,2.37a.5.5,0,0,1,.32.42.53.53,0,0,1-.23.47c-.31.2-7.58,5-8.87,5.74a25.16,25.16,0,0,0-2.61,3.61c-2.76,4.13-6.92,10.38-11.16,13.55A15,15,0,0,1,135.65,273.22Zm17.55-28.35a25.15,25.15,0,0,0-3.24.19c-8.25,1-21.67,17.59-21.19,22.64a4.61,4.61,0,0,0,3,3.76c2.94,1.29,8,1,12.1-2s8.21-9.23,10.93-13.31c1.61-2.42,2.41-3.61,2.92-3.91,1-.61,6-3.86,8-5.17A41.7,41.7,0,0,0,153.2,244.87Z" style="fill:#263238"></path><path d="M149.89,244.56s3.74-7.78,8.17-7.47,8.77,9.82,8.77,9.82Z" style="fill:#7a7a7a"></path><path d="M166.83,247.41h-.07l-16.93-2.34a.52.52,0,0,1-.38-.26.51.51,0,0,1,0-.45c.16-.33,3.95-8.1,8.65-7.76s9,9.71,9.19,10.11a.49.49,0,0,1-.05.51A.54.54,0,0,1,166.83,247.41Zm-16.16-3.25,15.3,2.12c-1.16-2.27-4.6-8.45-7.95-8.69S151.64,242.38,150.67,244.16Z" style="fill:#263238"></path><path d="M105.32,144s1.23-8.07,3.25-9.52,7.62-1.68,9.07-1.46,7.28,8.4,7.62,10.42-8.18,2.69-12,2.91S105.32,144,105.32,144Z" style="fill:#fff"></path><path d="M112.79,146.91a16.89,16.89,0,0,1-7.73-2.45.49.49,0,0,1-.23-.5c.13-.84,1.32-8.31,3.45-9.85s8-1.77,9.44-1.54c1.86.28,7.72,9,8,10.83a1.22,1.22,0,0,1-.27,1c-.37.46-1.5,1.87-12.18,2.5Zm-6.92-3.13c1,.55,4.34,2.29,7.38,2.11,9.23-.54,11.08-1.67,11.44-2.12a.29.29,0,0,0,.08-.21c-.36-2.13-6.12-9.79-7.2-10-1.41-.22-6.86,0-8.71,1.36C107.42,136,106.26,141.38,105.87,143.78Z" style="fill:#263238"></path><path d="M104.51,170s-14.09,4.44-14.88,6.27,7.31,32.89,7.31,32.89,2.35,17.74,3.65,18.79,26.37.78,30.54.26,7.57-4.7,7.57-4.7.53-17.75.79-20.1-1.05-19.05-1.05-22.71.79-5.74-1.3-7.57-16.58-4.48-16.58-4.48S107.12,167.94,104.51,170Z" style="fill:#fff"></path><path d="M114.38,229.2c-6.86,0-13.32-.21-14.1-.83-1.35-1.09-3.28-14.91-3.84-19.12C95.1,204.1,88.36,178,89.17,176.1s11.65-5.43,15.11-6.52c2.83-2.07,14.92-1.47,16.3-1.4,1.56.28,14.76,2.74,16.89,4.61,1.78,1.56,1.69,3.28,1.55,5.65,0,.69-.08,1.45-.08,2.29,0,1.54.24,5.46.49,9.61.35,5.78.71,11.76.55,13.16-.25,2.3-.77,19.88-.78,20.06a.48.48,0,0,1-.11.3c-.14.17-3.57,4.33-7.89,4.88C129.39,229,121.66,229.2,114.38,229.2Zm1.13-60.15c-4.24,0-9.31.27-10.69,1.37a.51.51,0,0,1-.16.09c-6.82,2.15-14.13,5-14.57,6-.44,1.52,4.26,20.79,7.33,32.57,1.14,8.54,2.75,17.77,3.5,18.54,1.53.86,26,.66,30.15.14,3.53-.44,6.54-3.7,7.14-4.39.06-2,.53-17.72.78-20,.14-1.31-.23-7.52-.56-13-.25-4.17-.49-8.1-.49-9.67,0-.86.05-1.64.08-2.34.13-2.25.21-3.61-1.21-4.85-1.63-1.42-12.35-3.63-16.34-4.37C119.31,169.11,117.5,169.05,115.51,169.05Zm-11,1h0Z" style="fill:#263238"></path><polygon points="126.7 171.86 127.45 196.93 131.96 233.95 137.76 231.38 140.33 227.19 139.04 187.59 139.37 173.75 124.25 170.59 126.7 171.86" style="fill:#263238"></polygon><path d="M132,234.45a.5.5,0,0,1-.24-.06.48.48,0,0,1-.25-.38L127,197l-.75-24.82L124,171a.51.51,0,0,1-.24-.61.49.49,0,0,1,.57-.32l15.12,3.16a.5.5,0,0,1,.4.5l-.33,13.84,1.29,39.57a.45.45,0,0,1-.07.28l-2.58,4.19a.51.51,0,0,1-.22.19l-5.79,2.58A.52.52,0,0,1,132,234.45Zm-4.79-62.74a.31.31,0,0,1,0,.13l.75,25.07,4.43,36.31,5-2.24,2.42-3.92-1.28-39.45.31-13.46Z" style="fill:#263238"></path><path d="M104.51,170s10.51,15.89,13,21.86l2.48,6s-.76,21.91,0,27.83a27.19,27.19,0,0,1-.68,10.56s-16.83,3.76-18-.17-8.82-8-8.82-8-.81-28.69-.81-31.17-2-20.56-2-20.56Z" style="fill:#263238"></path><path d="M106.92,238.38c-3.08,0-5.61-.53-6.1-2.17-1.11-3.68-8.5-7.7-8.57-7.74a.49.49,0,0,1-.27-.42c0-1.17-.81-28.73-.81-31.19s-2-20.33-2-20.51a.47.47,0,0,1,.3-.51l14.88-6.27a.51.51,0,0,1,.61.19c.43.65,10.57,16,13,21.93l2.49,6a.49.49,0,0,1,0,.21c0,.22-.75,21.93,0,27.75a27.56,27.56,0,0,1-.7,10.77.49.49,0,0,1-.37.34A66.35,66.35,0,0,1,106.92,238.38ZM93,227.73c1.37.78,7.68,4.49,8.79,8.19.75,2.5,10.79,1.28,17.14-.1a27.57,27.57,0,0,0,.59-10.08c-.74-5.74-.07-25.93,0-27.8l-2.44-5.86c-2.24-5.37-11.18-19.07-12.73-21.43l-14.15,6c.3,2.67,2,17.93,2,20.25S92.89,224.73,93,227.73Z" style="fill:#263238"></path><path d="M130.82,140.81a37.53,37.53,0,0,1-9.1,3.5c-4.38.87-13.13-2.28-19.09-1.23s-9.1,8.23-8.4,12.78,16.81,6.48,22.59,5.43,13.65-8.23,15.93-12.78S136.6,138.7,130.82,140.81Z" style="fill:#263238"></path><path d="M112.87,162.07c-5.77,0-14-1.29-17.4-3.73a3.74,3.74,0,0,1-1.73-2.4c-.71-4.57,2.45-12.23,8.81-13.35,3.23-.57,7.14,0,10.92.64,3.18.51,6.18,1,8.15.59a37.26,37.26,0,0,0,9-3.45l.07,0c2-.73,3.35-.68,4.1.16,1.09,1.22.57,4-1.55,8.23-2.45,4.89-10.61,12-16.29,13.05A23,23,0,0,1,112.87,162.07Zm-7.46-18.71a15.52,15.52,0,0,0-2.69.21c-5.78,1-8.64,8-8,12.22a2.83,2.83,0,0,0,1.33,1.73c4.06,2.89,15.86,4.16,20.68,3.28,5.42-1,13.23-7.82,15.57-12.51,1.81-3.63,2.45-6.29,1.7-7.13-.43-.48-1.45-.44-3,.1a37.39,37.39,0,0,1-9.21,3.54c-2.15.43-5.24-.06-8.51-.58A53.22,53.22,0,0,0,105.41,143.36Z" style="fill:#263238"></path><path d="M110,162.52s-.79,5.49-.45,7.06,8.85,7.5,10.42,8.51,4.25-7.06,4.25-7.5-.33-4.93-.33-4.93-4.71,1.68-7.4.22S110,162.52,110,162.52Z" style="fill:#fff"></path><path d="M120.28,178.68a1,1,0,0,1-.55-.17c-.11-.06-10.21-6.8-10.64-8.83-.34-1.61.36-6.66.44-7.23a.48.48,0,0,1,.26-.37.5.5,0,0,1,.46,0s3.85,1.93,6.51,3.37c2.46,1.33,6.94-.24,7-.25a.49.49,0,0,1,.44.05.47.47,0,0,1,.22.38c0,.46.34,4.51.34,5s-2.1,6.95-3.89,7.93A1.16,1.16,0,0,1,120.28,178.68Zm-9.85-15.4a30,30,0,0,0-.36,6.19c.24,1.15,7.37,6.38,10.2,8.2,1.32-.58,3.4-6.47,3.48-7.12,0-.25-.16-2.47-.29-4.22-1.41.41-4.9,1.23-7.17,0C114.28,165.24,111.62,163.88,110.43,163.28Z" style="fill:#263238"></path><path d="M126.27,148.07s-2.91-2.57-8.4-1.9-8.07,1.79-9.08,3a19.15,19.15,0,0,0-2,3.59s-2.47-.68-2,2.91,1.35,4.26,1.91,4.48a9.35,9.35,0,0,0,1.79.34s1.34,3.47,3,4.48,4.71,4.36,9.08,3.69,6-4.81,6.6-7.61S126.27,148.07,126.27,148.07Z" style="fill:#fff"></path><path d="M119.41,169.27c-3.07,0-5.4-1.78-7-3-.46-.35-.85-.65-1.17-.85-1.53-.91-2.75-3.56-3.12-4.44a7.52,7.52,0,0,1-1.63-.34c-.79-.31-1.75-1.15-2.21-4.88-.19-1.45.06-2.48.72-3.05a2.08,2.08,0,0,1,1.48-.47,17.5,17.5,0,0,1,1.94-3.35c1.25-1.54,4.33-2.59,9.4-3.21,5.64-.7,8.66,1.92,8.79,2a.45.45,0,0,1,.16.3c.06.42,1.47,10.31.89,13.16-.43,2.15-2,7.24-7,8A8.66,8.66,0,0,1,119.41,169.27Zm-13.07-16a1,1,0,0,0-.69.23c-.39.34-.53,1.09-.39,2.17.3,2.4.83,3.77,1.59,4.08a8.39,8.39,0,0,0,1.65.3.48.48,0,0,1,.42.31c.36.93,1.56,3.48,2.82,4.24.37.22.79.54,1.27.9,1.78,1.36,4.22,3.23,7.47,2.73,4.42-.68,5.81-5.28,6.19-7.22.5-2.48-.67-11.2-.87-12.63a11,11,0,0,0-7.87-1.68c-4.74.58-7.68,1.54-8.75,2.85a18.54,18.54,0,0,0-1.94,3.46.51.51,0,0,1-.59.29A1.52,1.52,0,0,0,106.34,153.23Z" style="fill:#263238"></path><path d="M106.78,152.78s1.45,2,1.79,1.45.22-5,.22-5Z" style="fill:#fff"></path><path d="M108.41,154.83c-.51,0-1.19-.59-2-1.76a.52.52,0,0,1,0-.54l2-3.58a.49.49,0,0,1,.56-.24.48.48,0,0,1,.37.47c0,1.73.07,4.71-.29,5.31a.67.67,0,0,1-.57.34Zm-1-2.09a7.35,7.35,0,0,0,.84.92c.06-.51.1-1.5.1-2.59Z" style="fill:#263238"></path><path d="M112.6,152.49a.52.52,0,0,1-.29-.09.51.51,0,0,1-.11-.7,4.87,4.87,0,0,1,5.13-1.76.5.5,0,0,1-.26,1,3.89,3.89,0,0,0-4.06,1.37A.49.49,0,0,1,112.6,152.49Z" style="fill:#263238"></path><path d="M125.93,151.15a.47.47,0,0,1-.39-.2c-1.16-1.52-3.35-.12-3.37-.11a.5.5,0,1,1-.54-.83c1-.67,3.33-1.46,4.7.33a.51.51,0,0,1-.09.71A.57.57,0,0,1,125.93,151.15Z" style="fill:#263238"></path><path d="M119.77,157.76a.51.51,0,0,1-.5-.5.5.5,0,0,1,.5-.5,2.08,2.08,0,0,0,1.8-1,.51.51,0,0,1,.68-.19.49.49,0,0,1,.2.67A3.07,3.07,0,0,1,119.77,157.76Z" style="fill:#263238"></path><path d="M120,160.33a10,10,0,0,1-3.89-.83.5.5,0,0,1,.42-.9s4,1.85,7.11-.4a.49.49,0,0,1,.7.11.5.5,0,0,1-.11.69A7,7,0,0,1,120,160.33Z" style="fill:#263238"></path><ellipse cx="116.14" cy="152.59" rx="0.72" ry="1.05" style="fill:#263238"></ellipse><ellipse cx="123.94" cy="152.46" rx="0.72" ry="1.05" style="fill:#263238"></ellipse><path d="M109.47,165.6s6.52,7.56,9.92,7.83a5.17,5.17,0,0,0,4.86-2.84s1.92.49,2.45,1.27A9.84,9.84,0,0,1,127,181c-2.09,4.69-2.61,12.26-2.61,12.26s-5.75-11-9.14-13.57S105,171.86,104.51,170,108.84,164,109.47,165.6Z" style="fill:#92E3A9"></path><path d="M124.35,193.76a.51.51,0,0,1-.45-.26c-.05-.11-5.73-10.9-9-13.41-5-3.84-10.36-8.09-10.88-9.92s2.59-4.77,4.23-5.33c1.07-.35,1.49.19,1.64.48,1.82,2.1,6.94,7.41,9.53,7.61a4.65,4.65,0,0,0,4.37-2.56.51.51,0,0,1,.58-.27c.21.06,2.12.57,2.73,1.48a10.25,10.25,0,0,1,.3,9.62c-2,4.56-2.56,12-2.56,12.1a.5.5,0,0,1-.4.45Zm-15.45-28a2.89,2.89,0,0,0-1.44.7c-1.47,1.08-2.67,2.77-2.47,3.47.48,1.66,7.52,7.08,10.53,9.39,2.72,2.1,6.78,9.18,8.48,12.28a40.66,40.66,0,0,1,2.5-10.78,9.2,9.2,0,0,0-.22-8.65,4,4,0,0,0-1.79-1,5.49,5.49,0,0,1-5.14,2.74c-3.56-.27-10-7.68-10.26-8a.42.42,0,0,1-.09-.14l0,0Z" style="fill:#263238"></path><path d="M143.44,225.75c-1.65,0-4.17-.7-4.92-1.46a.92.92,0,0,1-.31-.85,6.26,6.26,0,0,0-.52-1.62,13,13,0,0,1-1.2-5.18c.17-3.12,1.09-27.58.32-31.43-.52-2.64-1.46-11.48-.19-12.43a.68.68,0,0,1,.75-.06l0,0a13.72,13.72,0,0,1,4.61,5.71c1.23,3.22,5.11,28.46,5.52,31.15l2,1.62a.47.47,0,0,1,.2.39V213a.51.51,0,0,1-.38.49s-3.43.93-4.73,3.52c-.66,1.34-.25,3.4.07,5s.67,3.34-.57,3.58A3.48,3.48,0,0,1,143.44,225.75Zm-4.23-2.19c.38.51,3.42,1.41,4.78,1.14.23-.2,0-1.58-.21-2.4-.36-1.81-.8-4.05,0-5.69a8.77,8.77,0,0,1,5-3.94v-.81l-2-1.58a.51.51,0,0,1-.19-.32c0-.28-4.26-27.92-5.49-31.14a12.58,12.58,0,0,0-3.95-5c-.4,1.47-.07,7.65.64,11.21.84,4.16-.19,29.67-.3,31.69a12.11,12.11,0,0,0,1.13,4.75A5.5,5.5,0,0,1,139.21,223.56Zm0,.08Z" style="fill:#263238"></path><path d="M149.3,211.62s-4,.32-5.05,2.37a17.15,17.15,0,0,0-1.58,8.2c.31,1.9.79,3.63,2.37,4.11s6.15-.63,6.15-.63,5.21-4.58,3.95-8.37S150.09,211.31,149.3,211.62Z" style="fill:#fff"></path><path d="M146.12,226.91a4.83,4.83,0,0,1-1.23-.13c-1.91-.58-2.4-2.63-2.72-4.5a17.72,17.72,0,0,1,1.64-8.53c1.15-2.14,4.85-2.57,5.39-2.62a2.21,2.21,0,0,1,1.4.27,10.42,10.42,0,0,1,5,5.74c1.35,4.06-3.87,8.71-4.09,8.9a.43.43,0,0,1-.21.11A26.8,26.8,0,0,1,146.12,226.91Zm3.39-14.82h0a.27.27,0,0,1-.12,0c-1,.08-3.86.62-4.65,2.11a16.63,16.63,0,0,0-1.53,7.88c.34,2,.79,3.34,2,3.71s4.44-.3,5.77-.61c.66-.61,4.77-4.58,3.71-7.75C153.51,214,150.25,212.09,149.51,212.09Zm-.21-.47h0Z" style="fill:#263238"></path><path d="M141.72,214.49a.46.46,0,0,1-.23-.06.49.49,0,0,1-.21-.67,9.07,9.07,0,0,1,5.7-4.36.5.5,0,0,1,.21,1,8.27,8.27,0,0,0-5,3.85A.5.5,0,0,1,141.72,214.49Z" style="fill:#263238"></path><path d="M139.83,212.28a.48.48,0,0,1-.38-.18.48.48,0,0,1,.06-.7,33.27,33.27,0,0,1,5-3.54.51.51,0,0,1,.67.22.5.5,0,0,1-.23.67,34.54,34.54,0,0,0-4.79,3.41A.49.49,0,0,1,139.83,212.28Z" style="fill:#263238"></path><path d="M152.29,214.78a5.5,5.5,0,0,0-4.89,3.31c-1.73,3.47-1.26,6.16.16,6.95s4.26,2.05,4.26,2.05-.95,1.42-.31,2.36,3.47,4,4.41,4.26,3.63,0,5.69-2.05a5.58,5.58,0,0,0,.78-6.62,11.21,11.21,0,0,0-3.78-3.63A4.83,4.83,0,0,1,157,220S154.19,215.41,152.29,214.78Z" style="fill:#fff"></path><path d="M156.73,234.32a3,3,0,0,1-1-.13c-1.16-.39-4.11-3.6-4.68-4.46a2.5,2.5,0,0,1,0-2.41c-.89-.4-2.73-1.25-3.81-1.85-1.62-.9-2.27-3.8-.36-7.6a5.94,5.94,0,0,1,5.36-3.59l.13,0c2,.67,4.7,4.94,5,5.42a4.14,4.14,0,0,0,1.34,1.22,11.71,11.71,0,0,1,4,3.84A6.08,6.08,0,0,1,162,232,7.69,7.69,0,0,1,156.73,234.32Zm-4.53-19a5,5,0,0,0-4.35,3c-1.6,3.2-1.22,5.63,0,6.28,1.39.77,4.2,2,4.22,2a.5.5,0,0,1,.22.73c-.21.32-.68,1.27-.32,1.82.67,1,3.42,3.81,4.16,4.06a6.18,6.18,0,0,0,5.17-1.93,5.1,5.1,0,0,0,.72-6,11,11,0,0,0-3.55-3.42,5.16,5.16,0,0,1-1.8-1.59C155.85,219,153.62,215.83,152.2,215.28Z" style="fill:#263238"></path><path d="M151.82,227.59a.65.65,0,0,1-.19,0,.5.5,0,0,1-.3-.39c-.09-.58-.46-3.5.83-4.43a14.11,14.11,0,0,1,3.63-1.49.51.51,0,0,1,.62.35.5.5,0,0,1-.36.61,13.87,13.87,0,0,0-3.31,1.35c-.46.33-.57,1.53-.51,2.61l3.55-2.63a.5.5,0,1,1,.6.8l-4.26,3.16A.54.54,0,0,1,151.82,227.59Z" style="fill:#263238"></path><path d="M151.51,230a.51.51,0,0,1-.48-.33.5.5,0,0,1,.31-.64c.06,0,5.89-2,7.52-3.95a.5.5,0,0,1,.76.64c-1.8,2.14-7.7,4.17-8,4.26A.47.47,0,0,1,151.51,230Z" style="fill:#263238"></path><path d="M153.4,232.16a.49.49,0,0,1-.49-.4.51.51,0,0,1,.39-.59c.06,0,5.5-1.09,6.94-3.26a.5.5,0,0,1,.7-.13.49.49,0,0,1,.13.69c-1.67,2.51-7.34,3.64-7.58,3.68Z" style="fill:#263238"></path><path d="M155,233.53a.5.5,0,0,1-.11-1c1.23-.29,4.69-1.3,5.82-2.52a.51.51,0,0,1,.71,0,.5.5,0,0,1,0,.71c-1.57,1.69-6.13,2.77-6.32,2.81Z" style="fill:#263238"></path><path d="M101.12,192.22h0c-.26,1.83-7.57,17.49-7.57,17.49s2.35,2.35,2.35,3.65-.26,6.53-.26,6.53a32.36,32.36,0,0,0-5,5.22,16.67,16.67,0,0,0-2.35,6.26s-9.14-7.05-8.88-10.18,3.66-40.46,8.09-43.85a7.24,7.24,0,0,1,8.62-.26" style="fill:#fff"></path><path d="M88.33,231.87a.5.5,0,0,1-.31-.1c-1-.74-9.34-7.31-9.07-10.62,0-.4,3.43-40.49,8.29-44.21a7.8,7.8,0,0,1,9.22-.26.51.51,0,0,1,.1.7.5.5,0,0,1-.7.1,6.67,6.67,0,0,0-8,.26c-3.73,2.85-7,33.12-7.9,43.49-.16,2,4.6,6.49,8,9.24a16,16,0,0,1,2.28-5.65,31.31,31.31,0,0,1,4.88-5.17c0-1,.25-5.16.25-6.29,0-.8-1.35-2.45-2.21-3.3a.52.52,0,0,1-.1-.56c2.93-6.27,7.34-16.05,7.53-17.35h0l.12-.81a.5.5,0,0,1,.56-.43.51.51,0,0,1,.43.5v.07l-.12.81c-.25,1.76-6.25,14.7-7.46,17.32.64.69,2.25,2.51,2.25,3.75s-.25,6.34-.26,6.55a.54.54,0,0,1-.18.36,32,32,0,0,0-4.87,5.12,16.43,16.43,0,0,0-2.27,6.05.47.47,0,0,1-.3.39A.46.46,0,0,1,88.33,231.87Z" style="fill:#263238"></path><path d="M95.64,219.89s-1-1.48-2.21-.85-7.57,6.78-8.2,8.36,1.57,5.53,1.57,5.53,3.63,1.1,4.11.78.15-3,1.57-5.68,5.69-4.89,5.84-5.36S95.64,219.89,95.64,219.89Z" style="fill:#fff"></path><path d="M90.59,234.26a15.47,15.47,0,0,1-3.93-.86.45.45,0,0,1-.29-.23c-.24-.42-2.31-4.2-1.61-5.95s7.14-8,8.45-8.63a2.24,2.24,0,0,1,2.8,1c3,2.48,2.88,3,2.79,3.28s-.38.5-1.35,1.18c-1.35,1-3.61,2.53-4.52,4.26a12,12,0,0,0-1.18,4.21c-.13.9-.19,1.4-.57,1.65C91.12,234.18,91,234.26,90.59,234.26Zm-3.45-1.75a16.84,16.84,0,0,0,3.46.76,8.65,8.65,0,0,0,.15-.93A13.22,13.22,0,0,1,92,227.8c1-1.94,3.41-3.61,4.83-4.61.33-.23.68-.48.88-.64a18.46,18.46,0,0,0-2.43-2.27l-.11-.12h0s-.72-1.09-1.55-.67c-1.12.56-7.37,6.6-8,8.1C85.31,228.54,86.34,231,87.14,232.51Zm10.7-9.81h0Z" style="fill:#263238"></path><path d="M97.53,223.77l11.21,9.31s9.63,2.69,10.57,3.16,5,7.1,5.21,7.89-.47,1.1-1,1.58a30,30,0,0,1-4.26,1.89,50.56,50.56,0,0,1-5.68-1.73c-2.37-1-6.94-3-8.68-4.74s-2.84-3-2.84-3l-10.89-5.52S90,224.4,97.53,223.77Z" style="fill:#fff"></path><path d="M119.31,248.1h-.11a48.38,48.38,0,0,1-5.75-1.76c-1.12-.45-6.78-2.77-8.85-4.84-1.49-1.5-2.54-2.66-2.8-3L91,233.06a.49.49,0,0,1-.27-.37c0-.17-.6-4.11,1.58-6.88a7,7,0,0,1,5.18-2.54.52.52,0,0,1,.36.12L109,232.63c1.37.39,9.62,2.7,10.56,3.16,1.1.55,5.29,7.36,5.47,8.24a1.77,1.77,0,0,1-.81,1.78l-.27.25a24.77,24.77,0,0,1-4.44,2A.57.57,0,0,1,119.31,248.1ZM91.69,232.29l10.65,5.4.15.11s1.11,1.28,2.82,3c1.49,1.5,5.52,3.43,8.51,4.62a47.32,47.32,0,0,0,5.46,1.68,26.61,26.61,0,0,0,3.94-1.73l.32-.29c.42-.37.55-.51.49-.83-.22-.89-4.19-7.12-4.94-7.54s-6.63-2.05-10.49-3.13a.44.44,0,0,1-.18-.09l-11-9.18a6,6,0,0,0-4.27,2.13C91.47,228.48,91.61,231.42,91.69,232.29Z" style="fill:#263238"></path><path d="M115.68,234.66l6.63,1.42,3.31,1.58s.95,1.1-.63,1.26a10.75,10.75,0,0,1-3.94-.79l-1.74-1.89Z" style="fill:#fff"></path><path d="M124.62,239.44a12.25,12.25,0,0,1-3.76-.84.46.46,0,0,1-.18-.13L119,236.66l-3.54-1.54a.5.5,0,0,1,.31-1l6.63,1.42.11,0,3.31,1.58a.48.48,0,0,1,.16.12,1.49,1.49,0,0,1,.34,1.35,1.41,1.41,0,0,1-1.3.74Zm-3.28-1.73a9.86,9.86,0,0,0,3.6.71c.39,0,.48-.13.48-.13a1.77,1.77,0,0,0-.12-.23l-3.15-1.5-2.32-.5Z" style="fill:#263238"></path><path d="M120.73,247.47a.59.59,0,0,1-.22-.05c-.92-.46-8.42-3.59-8.49-3.62a.49.49,0,0,1-.27-.65.5.5,0,0,1,.65-.27c.31.13,7.6,3.17,8.56,3.64a.51.51,0,0,1,.22.67A.49.49,0,0,1,120.73,247.47Z" style="fill:#263238"></path><path d="M123.57,246.21a.46.46,0,0,1-.23-.06L115,241.73a.5.5,0,0,1,.46-.88l8.37,4.42a.51.51,0,0,1,.21.67A.51.51,0,0,1,123.57,246.21Z" style="fill:#263238"></path><path d="M124.52,244.63a.47.47,0,0,1-.32-.12L117.73,239a.51.51,0,0,1-.06-.71.49.49,0,0,1,.7-.05l6.47,5.52a.51.51,0,0,1,.06.71A.52.52,0,0,1,124.52,244.63Z" style="fill:#263238"></path><path d="M229.44,196.3s-2.5-7.79-4.18-11.69a33.68,33.68,0,0,0-4.45-7.24s-3.06,8.91-2.51,13.64,7.52,8.36,7.52,8.36" style="fill:#bababa"></path><path d="M225.82,199.87a.46.46,0,0,1-.23-.06c-.29-.15-7.2-3.8-7.78-8.74-.57-4.79,2.4-13.5,2.53-13.86a.48.48,0,0,1,.38-.33.49.49,0,0,1,.47.17,33.61,33.61,0,0,1,4.53,7.36c1.66,3.88,4.17,11.66,4.2,11.74a.5.5,0,0,1-.33.63.49.49,0,0,1-.62-.32c0-.08-2.52-7.82-4.17-11.65a31.75,31.75,0,0,0-3.81-6.39c-.74,2.35-2.63,8.83-2.19,12.53.52,4.42,7.18,7.94,7.25,8a.5.5,0,0,1,.21.68A.49.49,0,0,1,225.82,199.87Z" style="fill:#263238"></path><path d="M282.07,245.87c0-3.34-6.68-11.42-11.69-15.59-2.32-1.93-5.34-6.34-7.92-10.54-2.39-1.6-4.4-2.41-5.21-1.38-2.61,3.32,6.4,14.23,10.43,17.08s5,5.92,2.85,5.69-9-.24-13.24,2.79c-2.24,1.61-2.52,5.52-2.28,8.85,2.22,1.26,1.21,2.74,3.67,6.19,2.78,3.9,5,3.9,8.91,2.5s4.18-3.06,4.18-3.06a10.28,10.28,0,0,0,5.85-2.23C280.4,254,282.07,249.21,282.07,245.87Z" style="fill:#fff"></path><path d="M263.78,262.81c-2,0-3.66-1-5.51-3.56a12.88,12.88,0,0,1-1.9-3.8,3.25,3.25,0,0,0-1.61-2.25.48.48,0,0,1-.25-.4c-.34-4.74.5-7.86,2.49-9.29,4.35-3.12,11.28-3.14,13.58-2.88.17,0,.47,0,.53-.13.21-.54-.7-2.52-3.72-4.66-3.37-2.37-10.35-10.43-11.05-15.2a3.25,3.25,0,0,1,.52-2.58c.92-1.19,2.85-.77,5.88,1.27a.4.4,0,0,1,.14.15c3.24,5.25,5.94,8.85,7.82,10.41,4.84,4,11.87,12.27,11.87,16,0,3.43-1.74,8.37-4.64,10.69a10.78,10.78,0,0,1-5.81,2.32c-.31.66-1.29,2-4.36,3.05A11.9,11.9,0,0,1,263.78,262.81Zm-8.29-10.34a4.23,4.23,0,0,1,1.82,2.66,12.23,12.23,0,0,0,1.78,3.54c2.6,3.64,4.58,3.66,8.33,2.32,3.49-1.24,3.85-2.67,3.86-2.69a.51.51,0,0,1,.49-.4,9.8,9.8,0,0,0,5.53-2.12c2.67-2.13,4.27-6.72,4.27-9.91,0-3-6.33-10.89-11.52-15.21-2-1.65-4.65-5.2-8-10.56-2.32-1.55-3.94-2.07-4.45-1.43a2.37,2.37,0,0,0-.31,1.83C258,224.94,264.8,232.79,268,235c2.87,2,4.59,4.47,4.07,5.82a1.32,1.32,0,0,1-1.57.77c-2.05-.22-8.81-.22-12.89,2.71C255.54,245.79,255.3,249.51,255.49,252.47Z" style="fill:#263238"></path><path d="M273.72,247.82s-3.9-6.41-5.57-3.34S274,250.05,273.72,247.82Z" style="fill:#263238"></path><path d="M272.59,249.17a6.71,6.71,0,0,1-4.34-1.91,2.45,2.45,0,0,1-.54-3,1.81,1.81,0,0,1,1.57-1.09h0c2.08,0,4.55,4,4.82,4.41a.48.48,0,0,1,.07.2,1.12,1.12,0,0,1-.67,1.23A2.3,2.3,0,0,1,272.59,249.17Zm-3.27-5h0c-.17,0-.44.07-.71.57-.13.22-.5.91.38,1.85,1.15,1.21,3.45,1.84,4.15,1.52.06,0,.1-.06.1-.12C272.27,246.44,270.44,244.15,269.32,244.15Z" style="fill:#263238"></path><path d="M271.77,258.9a39.57,39.57,0,0,1-6.51-.57c-2.08-.41-3.11-3-4-5.31a11.33,11.33,0,0,0-1.27-2.65l-1.4-1.67a.52.52,0,0,1,.07-.71.49.49,0,0,1,.7.07l1.39,1.67a11.3,11.3,0,0,1,1.44,2.92c.82,2.06,1.74,4.39,3.29,4.7a38,38,0,0,0,6.31.55.5.5,0,0,1,0,1Z" style="fill:#263238"></path><path d="M271.45,251.36a5.45,5.45,0,0,1-5.09-3.05,7.3,7.3,0,0,1-.36-5,.51.51,0,0,1,.63-.32.5.5,0,0,1,.32.63,6.39,6.39,0,0,0,.32,4.25c.36.76,1.86,3.17,5.75,2.29a.5.5,0,0,1,.22,1A8.43,8.43,0,0,1,271.45,251.36Z" style="fill:#263238"></path><path d="M125.77,324.58a7.77,7.77,0,0,0,2,.8c7.83,1.9,16.64-10.56,19.65-27.78,2-11.19,1-22.25-2.38-28.85-1.68-3.24-3.9-5.28-6.42-5.89-7.83-1.9-16.64,10.56-19.65,27.77-2,11.2-1,22.25,2.38,28.86A12.23,12.23,0,0,0,125.77,324.58Zm14.07-59a10.32,10.32,0,0,1,3.75,4.31c3.18,6.14,4,16.56,2.14,27.21-2.81,16.08-10.73,27.8-17.67,26.12-2.06-.5-3.9-2.22-5.32-5-3.18-6.13-4-16.56-2.14-27.2h0c2.81-16.09,10.73-27.81,17.67-26.12A5.59,5.59,0,0,1,139.84,265.62Z" style="fill:#b8b8b8"></path><path d="M129.36,326.07a7.27,7.27,0,0,1-1.74-.21,7.72,7.72,0,0,1-2.1-.85h0a12.66,12.66,0,0,1-4.64-5.29c-3.47-6.7-4.4-17.88-2.43-29.18,2.14-12.26,7.42-22.74,13.44-26.69a8.54,8.54,0,0,1,6.82-1.48c2.67.65,5,2.78,6.74,6.15,3.47,6.69,4.4,17.87,2.43,29.17-2.14,12.27-7.42,22.74-13.44,26.69A9.24,9.24,0,0,1,129.36,326.07ZM126,324.14a6.61,6.61,0,0,0,1.84.75,7.55,7.55,0,0,0,6-1.34c5.81-3.81,10.91-14,13-26,1.94-11.1,1.05-22-2.33-28.54-1.6-3.11-3.71-5.06-6.09-5.64a7.61,7.61,0,0,0-6,1.35c-5.81,3.8-10.91,14-13,26-1.94,11.09-1,22,2.33,28.54a11.59,11.59,0,0,0,4.25,4.88Zm3.4-.22a6.18,6.18,0,0,1-1.48-.18c-2.21-.53-4.16-2.34-5.64-5.21-3.23-6.22-4.07-16.77-2.19-27.52,2-11.72,6.93-21.63,12.44-25.24a7.31,7.31,0,0,1,5.84-1.28,6.3,6.3,0,0,1,1.71.7h0A10.68,10.68,0,0,1,144,269.7c3.23,6.23,4.07,16.77,2.19,27.52-2,11.73-6.93,21.64-12.44,25.25A8,8,0,0,1,129.42,323.92Zm7.5-58.6a7.05,7.05,0,0,0-3.82,1.28c-5.3,3.47-10,13.12-12,24.58-1.84,10.55-1,20.85,2.09,26.89,1.36,2.61,3.08,4.23,5,4.7a6.33,6.33,0,0,0,5-1.14c5.3-3.47,10-13.12,12-24.58,1.84-10.54,1-20.85-2.09-26.89a9.8,9.8,0,0,0-3.56-4.11,5.4,5.4,0,0,0-1.44-.59A5.59,5.59,0,0,0,136.92,265.32Z" style="fill:#263238"></path><path d="M131.26,319.33a8.58,8.58,0,0,0,4,1.21c8.47.4,16.24-12.61,17.31-29,.66-10.11-1.34-19.56-5.34-25.3-2.31-3.31-5.13-5.13-8.17-5.28-8.48-.4-16.24,12.61-17.31,29-.66,10.11,1.33,19.56,5.33,25.3A13.71,13.71,0,0,0,131.26,319.33Zm11-55.21a11.94,11.94,0,0,1,3.65,3.54c3.7,5.3,5.54,14.16,4.92,23.69-1,15.27-8,27.4-15.56,27-2.56-.12-5-1.7-7-4.55-3.7-5.3-5.53-14.16-4.91-23.69,1-15.27,8-27.39,15.56-27A7.24,7.24,0,0,1,142.27,264.12Z" style="fill:#b8b8b8"></path><path d="M135.6,321.05h-.41a9.19,9.19,0,0,1-4.18-1.27h0a14.32,14.32,0,0,1-4.38-4.23c-4.06-5.82-6.09-15.4-5.42-25.61,1.08-16.67,9.08-29.92,17.83-29.48,3.2.16,6.16,2.05,8.56,5.5,4.07,5.82,6.09,15.4,5.43,25.61C152,308,144.19,321.05,135.6,321.05Zm-4.09-2.15a8.06,8.06,0,0,0,3.73,1.14c8.2.4,15.74-12.41,16.79-28.54.65-10-1.31-19.34-5.25-25-2.21-3.18-4.91-4.93-7.78-5.07-8.24-.4-15.74,12.41-16.79,28.54-.66,10,1.31,19.34,5.24,25a13.19,13.19,0,0,0,4.06,3.93Zm4.09,0h-.35c-2.72-.13-5.26-1.78-7.35-4.77-3.76-5.39-5.63-14.36-5-24,1-15.54,8.21-27.9,16.08-27.5a7.72,7.72,0,0,1,3.54,1.08h0a12.39,12.39,0,0,1,3.81,3.69c3.76,5.39,5.63,14.36,5,24C150.34,306.69,143.32,318.89,135.6,318.89Zm3-55.29c-7.19,0-13.76,11.79-14.72,26.57-.62,9.42,1.19,18.16,4.82,23.37,1.91,2.73,4.18,4.23,6.58,4.34,7.28.36,14.06-11.56,15-26.56.61-9.42-1.19-18.16-4.83-23.37a11.45,11.45,0,0,0-3.5-3.4h0a6.77,6.77,0,0,0-3.08-.94Z" style="fill:#263238"></path><path d="M127.33,320.88a8.41,8.41,0,0,0,2.34.95c8.29,2,17.34-9.49,20.15-25.64,1.75-10,.79-19.84-2.56-26.31-1.91-3.68-4.47-6-7.41-6.71-8.3-2-17.34,9.48-20.15,25.64h0c-1.75,10-.79,19.84,2.56,26.31A13.83,13.83,0,0,0,127.33,320.88Zm14.14-54.81a11.92,11.92,0,0,1,4.37,5c3.1,6,4,15.21,2.33,24.65-2.62,15-10.78,25.79-18.18,24-2.48-.6-4.67-2.6-6.31-5.78-3.11-6-4-15.21-2.33-24.66,2.62-15,10.78-25.78,18.18-24A7.54,7.54,0,0,1,141.47,266.07Zm-21,23Z" style="fill:#b8b8b8"></path><path d="M131.56,322.56a8.5,8.5,0,0,1-2-.24,9.06,9.06,0,0,1-2.47-1,14.2,14.2,0,0,1-5.27-6c-3.39-6.56-4.37-16.51-2.61-26.62,1.94-11.09,6.87-20.43,12.88-24.36a9.93,9.93,0,0,1,7.89-1.68c3.09.75,5.76,3.16,7.73,7,3.4,6.56,4.38,16.52,2.62,26.63-1.94,11.09-6.87,20.43-12.88,24.36A10.77,10.77,0,0,1,131.56,322.56Zm-11.45-33.23c-1.62,9.75-.66,19.27,2.59,25.56a13.31,13.31,0,0,0,4.88,5.56h0a8.2,8.2,0,0,0,2.21.89,8.83,8.83,0,0,0,7.1-1.54c5.79-3.78,10.55-12.87,12.44-23.7,1.73-9.9.79-19.61-2.51-26-1.84-3.54-4.29-5.78-7.09-6.46a8.9,8.9,0,0,0-7.11,1.54c-5.73,3.76-10.46,12.72-12.38,23.43a.49.49,0,0,1,.5,0,.55.55,0,0,1,.2.17c1.88-10.33,6.4-18.93,11.84-22.49a8.67,8.67,0,0,1,6.87-1.47,7.51,7.51,0,0,1,2.07.84h0a12.38,12.38,0,0,1,4.57,5.2c3.15,6.08,4,15.42,2.37,25-1.84,10.52-6.4,19.3-11.92,22.92a8.71,8.71,0,0,1-6.87,1.47c-2.63-.64-4.92-2.73-6.64-6-3.12-6-4-15.25-2.41-24.72a.51.51,0,0,1-.52.05h0A.43.43,0,0,1,120.11,289.33Zm17.77-23.75a8.32,8.32,0,0,0-4.55,1.52c-5.22,3.42-9.72,12.15-11.49,22.26-1.62,9.34-.77,18.44,2.28,24.34,1.58,3.05,3.65,5,6,5.53a7.65,7.65,0,0,0,6.08-1.34c5.21-3.41,9.72-12.15,11.48-22.25,1.63-9.35.78-18.45-2.27-24.34a11.47,11.47,0,0,0-4.18-4.8,7,7,0,0,0-1.81-.73A6.54,6.54,0,0,0,137.88,265.58Z" style="fill:#263238"></path><path d="M127.8,313.44a8.84,8.84,0,0,0,2.31.94c7.83,1.9,16.27-8.4,18.81-23,1.53-8.8.63-17.55-2.41-23.43-1.84-3.56-4.34-5.81-7.23-6.51-7.83-1.9-16.27,8.4-18.8,23-1.54,8.79-.64,17.55,2.4,23.42A13.37,13.37,0,0,0,127.8,313.44Zm13.07-49.06a11.46,11.46,0,0,1,4.22,4.8c2.8,5.4,3.61,13.53,2.17,21.77-2.34,13.43-9.89,23-16.83,21.31-2.42-.59-4.54-2.52-6.13-5.58-2.79-5.4-3.6-13.54-2.17-21.77,2.34-13.43,9.9-23,16.83-21.31A6.87,6.87,0,0,1,140.87,264.38Z" style="fill:#b8b8b8"></path><path d="M132,315.1a8.4,8.4,0,0,1-2-.24,8.82,8.82,0,0,1-2.44-1h0a13.75,13.75,0,0,1-5.11-5.78c-3.09-6-4-14.84-2.46-23.73,1.71-9.8,6.19-18.13,11.69-21.74A9.76,9.76,0,0,1,139.4,261c3,.73,5.64,3.07,7.55,6.77,3.09,6,4,14.84,2.46,23.73-1.71,9.8-6.19,18.13-11.69,21.74A10.54,10.54,0,0,1,132,315.1ZM128.05,313a8.31,8.31,0,0,0,2.18.88,8.76,8.76,0,0,0,6.94-1.49c5.28-3.46,9.59-11.53,11.26-21.07,1.51-8.69.63-17.33-2.36-23.11-1.78-3.42-4.17-5.59-6.9-6.25a8.79,8.79,0,0,0-6.95,1.49c-5.28,3.46-9.59,11.53-11.25,21.07-1.52,8.69-.64,17.32,2.36,23.1a12.9,12.9,0,0,0,4.72,5.38Zm4-.06a7.54,7.54,0,0,1-1.71-.2c-2.57-.63-4.8-2.65-6.45-5.84-2.85-5.49-3.67-13.75-2.22-22.09,1.61-9.22,5.73-17,10.75-20.29a8.48,8.48,0,0,1,6.69-1.42,7.71,7.71,0,0,1,2,.84h0a12,12,0,0,1,4.41,5c2.84,5.49,3.67,13.75,2.21,22.08-1.6,9.23-5.73,17-10.75,20.3A9.13,9.13,0,0,1,132,313Zm5.32-49a8.06,8.06,0,0,0-4.4,1.46c-4.8,3.14-8.75,10.66-10.32,19.63-1.41,8.13-.62,16.15,2.13,21.45,1.51,2.93,3.52,4.77,5.8,5.32a7.33,7.33,0,0,0,5.9-1.28c4.8-3.15,8.76-10.67,10.32-19.63,1.42-8.13.62-16.15-2.12-21.45a11,11,0,0,0-4-4.6h0a6.43,6.43,0,0,0-3.28-.9Z" style="fill:#263238"></path><path d="M131.44,312.31a7.16,7.16,0,0,0,3.31,1c7.05.34,13.5-10.43,14.38-24,.55-8.36-1.11-16.19-4.42-20.94-1.92-2.75-4.28-4.28-6.82-4.4-7-.34-13.5,10.44-14.39,24-.54,8.35,1.11,16.18,4.43,20.93A11.48,11.48,0,0,0,131.44,312.31Zm9.05-45.38a9.58,9.58,0,0,1,2.95,2.86c3,4.32,4.51,11.55,4,19.33-.81,12.45-6.47,22.33-12.63,22-2.06-.1-4-1.37-5.61-3.68-3-4.32-4.51-11.54-4-19.33h0c.81-12.44,6.48-22.33,12.63-22A5.75,5.75,0,0,1,140.49,266.93Z" style="fill:#b8b8b8"></path><path d="M135.06,313.82h-.34a7.67,7.67,0,0,1-3.53-1.07h0a11.79,11.79,0,0,1-3.67-3.54c-3.38-4.84-5.07-12.79-4.52-21.26.91-13.85,7.58-24.86,14.91-24.48,2.7.13,5.19,1.73,7.21,4.62,3.38,4.84,5.06,12.78,4.51,21.25C148.74,303,142.25,313.82,135.06,313.82Zm-3.37-1.95a6.79,6.79,0,0,0,3.08.95c6.79.34,13-10.24,13.86-23.55.54-8.25-1.08-16-4.33-20.62-1.83-2.63-4.06-4.08-6.44-4.19-6.74-.33-13,10.24-13.86,23.55-.54,8.25,1.08,15.95,4.34,20.61a10.71,10.71,0,0,0,3.35,3.25Zm3.38-.2h-.28c-2.23-.11-4.3-1.45-6-3.89-3.08-4.41-4.61-11.76-4.1-19.65.83-12.71,6.73-22.81,13.16-22.5a6.23,6.23,0,0,1,2.89.88,10,10,0,0,1,3.11,3c3.08,4.41,4.61,11.75,4.09,19.64C147.12,301.68,141.39,311.67,135.07,311.67Zm2.48-45.06c-5.79,0-11.07,9.57-11.86,21.58-.5,7.67,1,14.78,3.92,19,1.51,2.18,3.32,3.38,5.23,3.47,5.86.28,11.31-9.4,12.1-21.57.5-7.68-1-14.78-3.91-19a9.09,9.09,0,0,0-2.8-2.72h0a5.38,5.38,0,0,0-2.43-.75Z" style="fill:#263238"></path><path d="M128.21,313.58a7.33,7.33,0,0,0,2,.79c6.89,1.68,14.4-7.84,16.74-21.22,1.44-8.27.64-16.41-2.13-21.77-1.59-3.06-3.73-5-6.19-5.6-6.9-1.67-14.4,7.85-16.74,21.22-1.44,8.27-.65,16.41,2.13,21.77A11.56,11.56,0,0,0,128.21,313.58Zm11.62-45.05a9.62,9.62,0,0,1,3.53,4c2.53,4.88,3.24,12.4,1.89,20.11-2.14,12.25-8.76,21-14.76,19.58-2-.49-3.76-2.11-5.09-4.68-2.53-4.88-3.24-12.4-1.89-20.11,2.14-12.25,8.76-21,14.76-19.57A5.81,5.81,0,0,1,139.83,268.53Z" style="fill:#b8b8b8"></path><path d="M131.75,315.06a7.52,7.52,0,0,1-1.7-.2A7.66,7.66,0,0,1,128,314h0a11.88,11.88,0,0,1-4.42-5c-2.83-5.45-3.64-13.71-2.18-22.08,1.6-9.2,5.7-16.94,10.7-20.21a8.43,8.43,0,0,1,6.65-1.42c2.6.64,4.86,2.67,6.51,5.86,2.83,5.46,3.64,13.71,2.18,22.09-1.6,9.19-5.71,16.94-10.7,20.21A9,9,0,0,1,131.75,315.06Zm-3.29-1.91a6.83,6.83,0,0,0,1.83.74,7.33,7.33,0,0,0,5.86-1.28c4.77-3.12,8.71-10.61,10.26-19.54,1.43-8.17.65-16.19-2.07-21.46-1.53-2.93-3.55-4.78-5.87-5.34a7.35,7.35,0,0,0-5.86,1.27c-4.77,3.13-8.71,10.62-10.26,19.55-1.43,8.16-.65,16.18,2.07,21.45a11,11,0,0,0,4,4.61Zm3.34-.24a6.22,6.22,0,0,1-1.43-.17c-2.15-.52-4-2.23-5.42-4.92-2.57-5-3.3-12.62-1.93-20.44,1.5-8.62,5.24-15.81,9.75-18.76a7.13,7.13,0,0,1,5.62-1.21,6.47,6.47,0,0,1,1.69.69h0a10.15,10.15,0,0,1,3.73,4.24c2.57,5,3.3,12.61,1.93,20.43-1.5,8.62-5.24,15.81-9.75,18.77A7.63,7.63,0,0,1,131.8,312.91Zm5.14-44.67a6.71,6.71,0,0,0-3.63,1.21c-4.22,2.77-7.87,9.87-9.31,18.1-1.33,7.61-.64,15,1.84,19.81,1.26,2.43,2.91,4,4.76,4.41a6,6,0,0,0,4.84-1.07c4.23-2.76,7.88-9.87,9.32-18.1,1.32-7.61.64-15-1.84-19.8a9.08,9.08,0,0,0-3.34-3.83h0a5,5,0,0,0-1.43-.58A5,5,0,0,0,136.94,268.24Z" style="fill:#263238"></path><path d="M128.6,307.46a7.34,7.34,0,0,0,1.93.79c6.52,1.58,13.53-6.95,15.63-19,1.27-7.28.52-14.53-2-19.4-1.54-3-3.62-4.85-6-5.43-6.52-1.58-13.53,7-15.64,19-1.27,7.27-.52,14.52,2,19.39A11.09,11.09,0,0,0,128.6,307.46Zm10.74-40.32a9.26,9.26,0,0,1,3.4,3.88c2.28,4.39,2.94,11,1.77,17.74-1.91,10.94-8,18.73-13.66,17.37-1.95-.48-3.66-2-4.94-4.5-2.27-4.4-2.93-11-1.76-17.75h0c1.91-10.94,8-18.73,13.66-17.36A5.59,5.59,0,0,1,139.34,267.14Z" style="fill:#b8b8b8"></path><path d="M132.1,308.93a6.91,6.91,0,0,1-1.69-.2,7.45,7.45,0,0,1-2.06-.84,11.54,11.54,0,0,1-4.3-4.85c-2.57-5-3.34-12.33-2-19.71,1.42-8.13,5.15-15.05,9.73-18.05a8.22,8.22,0,0,1,6.51-1.37c2.56.62,4.76,2.59,6.37,5.69,2.57,5,3.33,12.34,2,19.72-1.42,8.13-5.15,15-9.73,18.05A8.9,8.9,0,0,1,132.1,308.93Zm4.44-44.22a7.75,7.75,0,0,0-4.26,1.41c-4.36,2.85-7.92,9.51-9.29,17.38-1.26,7.17-.53,14.3,2,19.08a10.62,10.62,0,0,0,3.91,4.45h0a6.62,6.62,0,0,0,1.8.73,7.17,7.17,0,0,0,5.73-1.23c4.36-2.86,7.92-9.52,9.29-17.39,1.25-7.17.52-14.3-1.95-19.08-1.47-2.84-3.45-4.63-5.71-5.18A6.7,6.7,0,0,0,136.54,264.71Zm-4.4,42.07a6,6,0,0,1-1.41-.16c-2.09-.51-3.91-2.16-5.26-4.76-2.33-4.49-3-11.24-1.81-18.06,1.31-7.56,4.68-13.92,8.79-16.61a6.91,6.91,0,0,1,5.48-1.16,6.25,6.25,0,0,1,1.66.68,9.72,9.72,0,0,1,3.6,4.08c2.32,4.49,3,11.24,1.81,18.06-1.32,7.55-4.69,13.92-8.79,16.61A7.51,7.51,0,0,1,132.14,306.78Zm4.36-39.92A6.36,6.36,0,0,0,133,268c-3.89,2.54-7.09,8.65-8.36,15.94-1.15,6.61-.51,13.13,1.72,17.43,1.21,2.34,2.8,3.8,4.61,4.24a5.85,5.85,0,0,0,4.69-1c3.88-2.54,7.08-8.65,8.35-15.94,1.16-6.62.52-13.13-1.71-17.43a8.81,8.81,0,0,0-3.21-3.68h0a5.43,5.43,0,0,0-1.4-.57A5.3,5.3,0,0,0,136.5,266.86Z" style="fill:#263238"></path><path d="M95.87,233s-.8,7.81-.64,10.37a36.55,36.55,0,0,0,.8,5.26H98.9s-.8-7.18-.16-8.45,3-2.4,2.56-4.15S99.54,229.37,95.87,233Z" style="fill:#fff"></path><path d="M98.9,249.17H96a.51.51,0,0,1-.49-.38,38.18,38.18,0,0,1-.81-5.35c-.16-2.57.61-10.13.64-10.45a.6.6,0,0,1,.15-.31c1.19-1.19,2.3-1.66,3.3-1.39,1.82.48,2.58,3.24,2.94,4.57.41,1.5-.68,2.55-1.54,3.39a5.26,5.26,0,0,0-1,1.19c-.39.79-.12,5.26.21,8.18a.51.51,0,0,1-.5.55Zm-2.47-1h1.92c-.2-1.94-.65-7,0-8.18a5.78,5.78,0,0,1,1.22-1.46c.92-.89,1.51-1.54,1.29-2.33-.31-1.14-1-3.61-2.24-3.95q-.91-.24-2.22,1c-.12,1.18-.76,7.83-.62,10.11A35.05,35.05,0,0,0,96.43,248.17Z" style="fill:#263238"></path><path d="M98.57,239.51a2.06,2.06,0,0,1-1.25-.43c-1.8-1.35-1.94-5.56-1.95-6a.5.5,0,0,1,.49-.51h0a.49.49,0,0,1,.5.49c0,1.15.35,4.35,1.55,5.25a1.09,1.09,0,0,0,1,.18.49.49,0,0,1,.61.35.48.48,0,0,1-.35.61A2.27,2.27,0,0,1,98.57,239.51Z" style="fill:#263238"></path><path d="M98.9,248.67s-.32,9.73,2.08,13.88,2.71,8.14,1.11,9.25-3.51-.32-3.83-1.11-3.82-9.42-4.14-15.16.16-7,.16-7Z" style="fill:#7a7a7a"></path><path d="M100.81,272.71a3,3,0,0,1-.88-.13,3.49,3.49,0,0,1-2.13-1.71c-1.18-2.94-3.9-10.18-4.18-15.31-.32-5.68.13-7.08.19-7.22a.5.5,0,0,1,.48-.33l4.63.16a.5.5,0,0,1,.48.52c0,.09-.28,9.64,2,13.61,2.48,4.3,2.9,8.56,1,9.91A2.66,2.66,0,0,1,100.81,272.71ZM94.67,249a32.37,32.37,0,0,0,0,6.47c.28,5.13,3.19,12.72,4.08,14.93a2.49,2.49,0,0,0,1.51,1.19,1.77,1.77,0,0,0,1.6-.23c1.27-.89,1.06-4.55-1.27-8.59-2.15-3.72-2.18-11.57-2.15-13.65Z" style="fill:#263238"></path><path d="M223.43,286.07A35.25,35.25,0,0,1,214,284.7c-35.24-9.77-60.55-57.37-60.8-57.85a1,1,0,0,1,1.77-.93c.25.47,25.16,47.31,59.57,56.86,8.55,2.37,16.07,1.47,22.36-2.66,14.57-9.59,18-33.57,18-33.81a1,1,0,0,1,1.12-.86,1,1,0,0,1,.86,1.13c-.14,1-3.59,25.11-18.93,35.2A25.87,25.87,0,0,1,223.43,286.07Z" style="fill:#263238"></path><path d="M252,244.78c-.08-.51-3.06-14.84,4.48-19.24s9.55-1,9.87-.63h0l.92,2.2c.49-1.18-3.93-3.76-10.06,1.68-4.9,4.34-3.34,13.12-3.32,13.23Z" style="fill:#7a7a7a"></path><path d="M252,245.28l-.12,0a.49.49,0,0,1-.38-.41l0-.13c-.65-3.58-2.21-15.55,4.75-19.61,6.34-3.7,9.18-2.35,10.46-.57a1.13,1.13,0,0,1,.12.18s.26.63.5,1.19a1.25,1.25,0,0,1,.42,1.39.5.5,0,0,1-.46.31h0a.5.5,0,0,1-.46-.31l-.33-.78a1.39,1.39,0,0,0-.27-.17c-1.59-.84-4.82-.6-8.67,2.81-4.48,4-3.31,11.87-3.16,12.76a.56.56,0,0,1-.08.38l-1.89,2.76A.5.5,0,0,1,252,245.28Zm11-21.52c-1.94,0-4.29,1.06-6.26,2.21-5.84,3.41-5.09,13.22-4.44,17.5l1.07-1.57c-.23-1.57-1.12-9.37,3.51-13.48,3.94-3.5,7.2-3.77,9.05-3.25l0,0A3.33,3.33,0,0,0,263,223.76Z" style="fill:#263238"></path><circle cx="255.42" cy="245.11" r="4.26" style="fill:#fff"></circle><path d="M255.42,249.87a4.76,4.76,0,1,1,4.75-4.76A4.76,4.76,0,0,1,255.42,249.87Zm0-8.51a3.76,3.76,0,1,0,3.75,3.75A3.76,3.76,0,0,0,255.42,241.36Z" style="fill:#263238"></path><path d="M227.49,190.18s5.85-3.07,13.65,1.67,16.15,12.53,17.82,16.71A93.34,93.34,0,0,0,267,223c1.4,1.67,3.07,3.62,3.07,3.62s-7.8-3.35-8.91-5.85-2.51-5-2.51-5l1.39,7.79s-4.45-3.9-8.35-8.07a57.7,57.7,0,0,1-6.68-8.91l.83,5s-7.8-3.62-10.58-7.8-6.41-9.19-7-10.58A17.13,17.13,0,0,1,227.49,190.18Z" style="fill:#fff"></path><path d="M270.1,227.16a.65.65,0,0,1-.2,0c-.82-.35-8-3.5-9.17-6.11-.32-.71-.66-1.43-1-2.08l.81,4.58a.5.5,0,0,1-.24.52.51.51,0,0,1-.58-.06s-4.52-4-8.39-8.11a58.15,58.15,0,0,1-5.42-6.92l.43,2.6a.5.5,0,0,1-.19.48.49.49,0,0,1-.51,0c-.32-.15-8-3.73-10.79-8-.86-1.3-1.81-2.68-2.72-4a63.44,63.44,0,0,1-4.29-6.66,17.38,17.38,0,0,1-.86-3.17.5.5,0,0,1,.26-.53c.25-.13,6.19-3.14,14.14,1.69s16.33,12.73,18,17a93.39,93.39,0,0,0,8,14.35c1.39,1.66,3.06,3.61,3.06,3.61a.5.5,0,0,1,0,.62A.52.52,0,0,1,270.1,227.16ZM258.68,215.3a.5.5,0,0,1,.44.25s1.41,2.56,2.52,5.06c.65,1.44,4.06,3.38,6.6,4.63l-1.59-1.88a93.54,93.54,0,0,1-8.16-14.62c-1.62-4.06-9.85-11.75-17.61-16.46-6.42-3.9-11.5-2.33-12.82-1.8a16.12,16.12,0,0,0,.73,2.58,66.39,66.39,0,0,0,4.18,6.47c.92,1.33,1.87,2.71,2.74,4,2.13,3.21,7.42,6.13,9.51,7.2l-.68-4.05a.5.5,0,0,1,.32-.55.52.52,0,0,1,.61.21,57,57,0,0,0,6.61,8.83c2.7,2.88,5.69,5.66,7.25,7.07l-1.14-6.37a.5.5,0,0,1,.32-.56Z" style="fill:#263238"></path></g></svg>
